<svg width="30" height="30" viewBox="0 0 30 30" fill="none" xmlns="http://www.w3.org/2000/svg">
<path d="M17.2082 12.8153L17.2082 2.56858C17.2106 2.27826 17.1555 1.99033 17.0461 1.7214C16.9366 1.45248 16.775 1.20789 16.5706 1.00173C16.3662 0.795577 16.1229 0.631938 15.8549 0.520253C15.5869 0.408569 15.2995 0.351052 15.0091 0.351017C14.7188 0.350983 14.4313 0.408434 14.1633 0.520055C13.8953 0.631676 13.652 0.795259 13.4475 1.00137C13.2431 1.20747 13.0814 1.45203 12.9719 1.72093C12.8624 1.98982 12.8072 2.27774 12.8096 2.56806L12.8096 12.8148L2.56334 12.8153C2.27449 12.8153 1.98847 12.8722 1.7216 12.9827C1.45474 13.0933 1.21226 13.2553 1.00801 13.4596C0.803757 13.6638 0.641737 13.9063 0.531198 14.1732C0.420658 14.44 0.363764 14.726 0.363764 15.0149C0.363764 15.5983 0.595505 16.1577 1.00801 16.5702C1.42051 16.9827 1.97998 17.2145 2.56334 17.2145L12.8096 17.214L12.8096 27.4856C12.8144 28.0658 13.0482 28.6206 13.4602 29.0291C13.8722 29.4377 14.4289 29.6669 15.0091 29.6668C15.5894 29.6667 16.146 29.4374 16.5579 29.0287C16.9698 28.6201 17.2035 28.0653 17.2082 27.4851V17.2145H27.4539C28.0615 17.2145 28.6115 16.9682 29.0091 16.5706C29.4067 16.173 29.653 15.623 29.653 15.0154C29.6531 14.7266 29.5963 14.4406 29.4859 14.1737C29.3754 13.9068 29.2134 13.6643 29.0092 13.4601C28.805 13.2559 28.5625 13.0939 28.2956 12.9834C28.0288 12.873 27.7427 12.8162 27.4539 12.8164L17.2082 12.8153Z" fill="#FFFCF5"/>
</svg>
