<svg width="27" height="29" viewBox="0 0 27 29" fill="none" xmlns="http://www.w3.org/2000/svg">
<path d="M0 21C0 19.8954 0.895431 19 2 19H5C6.10457 19 7 19.8954 7 21V29H0V21Z" fill="#222831"/>
<path d="M10 17.25V13.75C10.2761 13.75 10.5 13.5261 10.5 13.25V11C10.5 10.7957 10.5406 10.6021 10.6136 10.426C10.7113 10.1905 10.6156 9.92311 10.3997 9.80018C10.5136 9.64853 10.6485 9.5136 10.8002 9.39972C10.9231 9.61564 11.1905 9.71127 11.426 9.61362C11.6021 9.54057 11.7957 9.5 12 9.5H12.75C13.0261 9.5 13.25 9.27614 13.25 9H13.75C13.75 9.27614 13.9739 9.5 14.25 9.5H15C15.2043 9.5 15.3979 9.54057 15.574 9.61362C15.8095 9.71127 16.0769 9.61564 16.1998 9.39972C16.3515 9.5136 16.4864 9.64853 16.6003 9.80018C16.3844 9.92311 16.2887 10.1905 16.3864 10.426C16.4594 10.6021 16.5 10.7957 16.5 11V13.25C16.5 13.5261 16.7239 13.75 17 13.75V17.25C16.7239 17.25 16.5 17.4739 16.5 17.75V22.25C16.5 22.5261 16.7239 22.75 17 22.75V26.25C16.7239 26.25 16.5 26.4739 16.5 26.75V28.5H15.25C14.9739 28.5 14.75 28.7239 14.75 29H12.25C12.25 28.7239 12.0261 28.5 11.75 28.5H10.5V26.75C10.5 26.4739 10.2761 26.25 10 26.25V22.75C10.2761 22.75 10.5 22.5261 10.5 22.25V17.75C10.5 17.4739 10.2761 17.25 10 17.25Z" fill="#222831" fill-opacity="0.1" stroke="#222831" stroke-linecap="round" stroke-dasharray="4 4"/>
<path d="M20 8.25V4.75C20.2761 4.75 20.5 4.52614 20.5 4.25V2C20.5 1.79569 20.5406 1.60212 20.6136 1.42595C20.7113 1.19049 20.6156 0.923113 20.3997 0.800178C20.5136 0.648532 20.6485 0.513599 20.8002 0.39972C20.9231 0.615643 21.1905 0.711266 21.426 0.613624C21.6021 0.54057 21.7957 0.5 22 0.5H22.75C23.0261 0.5 23.25 0.276142 23.25 0H23.75C23.75 0.276142 23.9739 0.5 24.25 0.5H25C25.2043 0.5 25.3979 0.54057 25.574 0.613624C25.8095 0.711266 26.0769 0.615643 26.1998 0.39972C26.3515 0.513599 26.4864 0.648532 26.6003 0.800178C26.3844 0.923113 26.2887 1.19049 26.3864 1.42595C26.4594 1.60212 26.5 1.79569 26.5 2V4.25C26.5 4.52614 26.7239 4.75 27 4.75V8.25C26.7239 8.25 26.5 8.47386 26.5 8.75V13.25C26.5 13.5261 26.7239 13.75 27 13.75V17.25C26.7239 17.25 26.5 17.4739 26.5 17.75V22.25C26.5 22.5261 26.7239 22.75 27 22.75V26.25C26.7239 26.25 26.5 26.4739 26.5 26.75V28.5H25.25C24.9739 28.5 24.75 28.7239 24.75 29H22.25C22.25 28.7239 22.0261 28.5 21.75 28.5H20.5V26.75C20.5 26.4739 20.2761 26.25 20 26.25V22.75C20.2761 22.75 20.5 22.5261 20.5 22.25V17.75C20.5 17.4739 20.2761 17.25 20 17.25V13.75C20.2761 13.75 20.5 13.5261 20.5 13.25V8.75C20.5 8.47386 20.2761 8.25 20 8.25Z" fill="#222831" fill-opacity="0.1" stroke="#222831" stroke-linecap="round" stroke-dasharray="5 5"/>
</svg>
