<svg width="73" height="73" viewBox="0 0 73 73" fill="none" xmlns="http://www.w3.org/2000/svg">
<path d="M36.5 0.25C16.4537 0.25 0.25 16.4537 0.25 36.5C0.25 56.5463 16.4537 72.75 36.5 72.75C46.1141 72.75 55.3344 68.9308 62.1326 62.1326C68.9308 55.3344 72.75 46.1141 72.75 36.5C72.75 16.4537 56.4375 0.25 36.5 0.25ZM36.5 65.5C28.8087 65.5 21.4325 62.4447 15.9939 57.0061C10.5553 51.5675 7.5 44.1913 7.5 36.5C7.5 28.8087 10.5553 21.4325 15.9939 15.9939C21.4325 10.5553 28.8087 7.5 36.5 7.5C44.1913 7.5 51.5675 10.5553 57.0061 15.9939C62.4447 21.4325 65.5 28.8087 65.5 36.5C65.5 44.1913 62.4447 51.5675 57.0061 57.0061C51.5675 62.4447 44.1913 65.5 36.5 65.5ZM40.125 29.0325L43.9675 32.875L47.81 29.0325L51.6525 32.875L55.495 29.0325L47.81 21.3475L40.125 29.0325ZM25.19 29.0325L29.0325 32.875L32.875 29.0325L25.19 21.3475L17.505 29.0325L21.3475 32.875L25.19 29.0325ZM36.5 56.4375C44.9462 56.4375 52.1238 51.145 55.0238 43.75H17.9762C20.8762 51.145 28.0538 56.4375 36.5 56.4375Z" fill="#FAC23D"/>
</svg>
