<svg width="25" height="22" viewBox="0 0 25 22" fill="none" xmlns="http://www.w3.org/2000/svg">
<path d="M14.2857 0C11.4441 0 8.71889 1.12882 6.70957 3.13814C4.70025 5.14746 3.57143 7.87268 3.57143 10.7143H0L4.63095 15.3452L4.71429 15.5119L9.52381 10.7143H5.95238C5.95238 6.10714 9.67857 2.38095 14.2857 2.38095C18.8929 2.38095 22.619 6.10714 22.619 10.7143C22.619 15.3214 18.8929 19.0476 14.2857 19.0476C11.9881 19.0476 9.90476 18.1071 8.40476 16.5952L6.71429 18.2857C7.70645 19.2833 8.88629 20.0747 10.1858 20.6141C11.4853 21.1535 12.8787 21.4303 14.2857 21.4286C17.1273 21.4286 19.8525 20.2997 21.8619 18.2904C23.8712 16.2811 25 13.5559 25 10.7143C25 7.87268 23.8712 5.14746 21.8619 3.13814C19.8525 1.12882 17.1273 4.23432e-08 14.2857 0ZM13.0952 5.95238V11.9048L18.1548 14.9048L19.0714 13.369L14.881 10.881V5.95238H13.0952Z" fill="#FFFCF5"/>
</svg>
