<svg width="463" height="424" viewBox="0 0 463 424" fill="none" xmlns="http://www.w3.org/2000/svg">
<mask id="path-1-inside-1_10_140" fill="white">
<path fill-rule="evenodd" clip-rule="evenodd" d="M8.34552 233.685C3.82122 233.685 0.153554 237.352 0.153554 241.877L0.15355 332.581C0.15355 337.105 3.82122 340.773 8.34552 340.773L107.673 340.773C112.197 340.773 115.865 337.105 115.865 332.581L115.865 291.109C115.865 286.585 112.197 282.917 107.673 282.917L66.2013 282.917C61.677 282.917 58.0094 279.25 58.0094 274.725L58.0094 241.877C58.0094 237.352 54.3417 233.685 49.8174 233.685L8.34552 233.685ZM123.206 155.861C121.67 155.861 120.166 155.43 118.864 154.616L70.5431 124.415C65.0868 121.005 58.0094 124.928 58.0094 131.362L58.0094 147.669C58.0094 152.193 54.3417 155.861 49.8174 155.861L8.34553 155.861C3.82123 155.861 0.153558 152.193 0.153558 147.669L0.153564 8.41862C0.153564 1.98435 7.23102 -1.93832 12.6873 1.47183L227.235 135.564C229.891 137.224 233.262 137.224 235.919 135.564L450.466 1.47186C455.923 -1.9383 463 1.98438 463 8.41865L463 147.669C463 152.193 459.332 155.861 454.808 155.861L413.336 155.861C408.812 155.861 405.144 152.193 405.144 147.669L405.144 131.362C405.144 124.928 398.067 121.005 392.61 124.415L344.29 154.616C342.988 155.43 341.483 155.861 339.948 155.861L123.206 155.861ZM413.336 233.685C408.812 233.685 405.144 237.352 405.144 241.877L405.144 274.725C405.144 279.25 401.477 282.917 396.952 282.917L355.48 282.917C350.956 282.917 347.288 286.585 347.288 291.109L347.288 332.581C347.288 337.105 350.956 340.773 355.48 340.773L454.808 340.773C459.332 340.773 463 337.105 463 332.581L463 282.917L463 241.877C463 237.352 459.332 233.685 454.808 233.685L413.336 233.685Z"/>
</mask>
<path fill-rule="evenodd" clip-rule="evenodd" d="M8.34552 233.685C3.82122 233.685 0.153554 237.352 0.153554 241.877L0.15355 332.581C0.15355 337.105 3.82122 340.773 8.34552 340.773L107.673 340.773C112.197 340.773 115.865 337.105 115.865 332.581L115.865 291.109C115.865 286.585 112.197 282.917 107.673 282.917L66.2013 282.917C61.677 282.917 58.0094 279.25 58.0094 274.725L58.0094 241.877C58.0094 237.352 54.3417 233.685 49.8174 233.685L8.34552 233.685ZM123.206 155.861C121.67 155.861 120.166 155.43 118.864 154.616L70.5431 124.415C65.0868 121.005 58.0094 124.928 58.0094 131.362L58.0094 147.669C58.0094 152.193 54.3417 155.861 49.8174 155.861L8.34553 155.861C3.82123 155.861 0.153558 152.193 0.153558 147.669L0.153564 8.41862C0.153564 1.98435 7.23102 -1.93832 12.6873 1.47183L227.235 135.564C229.891 137.224 233.262 137.224 235.919 135.564L450.466 1.47186C455.923 -1.9383 463 1.98438 463 8.41865L463 147.669C463 152.193 459.332 155.861 454.808 155.861L413.336 155.861C408.812 155.861 405.144 152.193 405.144 147.669L405.144 131.362C405.144 124.928 398.067 121.005 392.61 124.415L344.29 154.616C342.988 155.43 341.483 155.861 339.948 155.861L123.206 155.861ZM413.336 233.685C408.812 233.685 405.144 237.352 405.144 241.877L405.144 274.725C405.144 279.25 401.477 282.917 396.952 282.917L355.48 282.917C350.956 282.917 347.288 286.585 347.288 291.109L347.288 332.581C347.288 337.105 350.956 340.773 355.48 340.773L454.808 340.773C459.332 340.773 463 337.105 463 332.581L463 282.917L463 241.877C463 237.352 459.332 233.685 454.808 233.685L413.336 233.685Z" fill="#FAC23D"/>
<path d="M344.29 154.616L342.987 152.532L344.29 154.616ZM339.948 155.861L339.948 153.403L339.948 155.861ZM392.61 124.415L391.308 122.331L392.61 124.415ZM227.235 135.564L225.933 137.648L227.235 135.564ZM235.919 135.564L237.221 137.648L235.919 135.564ZM12.6873 1.47183L13.9898 -0.6122L12.6873 1.47183ZM123.206 155.861L123.206 153.403L123.206 155.861ZM70.5431 124.415L71.8456 122.331L70.5431 124.415ZM465.458 272.657C465.458 271.3 464.357 270.2 463 270.2C461.643 270.2 460.542 271.3 460.542 272.657L465.458 272.657ZM460.542 252.137C460.542 253.494 461.643 254.594 463 254.594C464.357 254.594 465.458 253.494 465.458 252.137L460.542 252.137ZM444.44 231.227C443.083 231.227 441.982 232.328 441.982 233.685C441.982 235.042 443.083 236.142 444.44 236.142L444.44 231.227ZM423.704 236.142C425.061 236.142 426.162 235.042 426.162 233.685C426.162 232.328 425.061 231.227 423.704 231.227L423.704 236.142ZM402.687 250.089C402.687 251.446 403.787 252.547 405.144 252.547C406.501 252.547 407.602 251.446 407.602 250.089L402.687 250.089ZM407.602 266.513C407.602 265.156 406.501 264.056 405.144 264.056C403.787 264.056 402.687 265.156 402.687 266.513L407.602 266.513ZM386.584 280.46C385.227 280.46 384.127 281.56 384.127 282.917C384.127 284.275 385.227 285.375 386.584 285.375L386.584 280.46ZM365.848 285.375C367.206 285.375 368.306 284.275 368.306 282.917C368.306 281.56 367.206 280.46 365.848 280.46L365.848 285.375ZM344.831 301.477C344.831 302.835 345.931 303.935 347.288 303.935C348.646 303.935 349.746 302.835 349.746 301.477L344.831 301.477ZM349.746 322.213C349.746 320.856 348.646 319.756 347.288 319.756C345.931 319.756 344.831 320.856 344.831 322.213L349.746 322.213ZM367.896 343.231C369.254 343.231 370.354 342.13 370.354 340.773C370.354 339.416 369.254 338.316 367.896 338.316L367.896 343.231ZM392.728 338.316C391.371 338.316 390.271 339.416 390.271 340.773C390.271 342.13 391.371 343.231 392.728 343.231L392.728 338.316ZM417.56 343.231C418.917 343.231 420.018 342.13 420.018 340.773C420.018 339.416 418.917 338.316 417.56 338.316L417.56 343.231ZM442.392 338.316C441.035 338.316 439.934 339.416 439.934 340.773C439.934 342.13 441.035 343.231 442.392 343.231L442.392 338.316ZM465.458 320.165C465.458 318.808 464.357 317.708 463 317.708C461.643 317.708 460.542 318.808 460.542 320.165L465.458 320.165ZM460.542 295.333C460.542 296.691 461.643 297.791 463 297.791C464.357 297.791 465.458 296.691 465.458 295.333L460.542 295.333ZM357.672 149.15C358.823 148.43 359.173 146.914 358.454 145.763C357.735 144.612 356.218 144.262 355.067 144.982L357.672 149.15ZM379.228 129.882C378.077 130.601 377.727 132.117 378.446 133.268C379.166 134.419 380.682 134.769 381.833 134.05L379.228 129.882ZM396.797 125.616C398.154 125.583 399.227 124.456 399.193 123.099C399.16 121.742 398.033 120.669 396.676 120.703L396.797 125.616ZM406.138 125.947C405.447 124.778 403.94 124.391 402.771 125.082C401.603 125.773 401.216 127.28 401.907 128.449L406.138 125.947ZM402.687 135.439C402.687 136.796 403.787 137.897 405.144 137.897C406.501 137.897 407.602 136.796 407.602 135.439L402.687 135.439ZM407.602 143.592C407.602 142.235 406.501 141.135 405.144 141.135C403.787 141.135 402.687 142.235 402.687 143.592L407.602 143.592ZM403.496 151.746C404.016 153 405.453 153.595 406.707 153.075C407.961 152.555 408.556 151.117 408.036 149.863L403.496 151.746ZM411.142 152.969C409.888 152.449 408.45 153.044 407.93 154.298C407.41 155.552 408.005 156.99 409.259 157.51L411.142 152.969ZM423.704 158.319C425.061 158.319 426.162 157.218 426.162 155.861C426.162 154.504 425.061 153.403 423.704 153.403L423.704 158.319ZM444.44 153.403C443.083 153.403 441.982 154.504 441.982 155.861C441.982 157.218 443.083 158.319 444.44 158.319L444.44 153.403ZM465.458 130.263C465.458 128.906 464.357 127.805 463 127.805C461.643 127.805 460.542 128.906 460.542 130.263L465.458 130.263ZM460.542 95.4502C460.542 96.8075 461.643 97.9078 463 97.9078C464.357 97.9078 465.458 96.8075 465.458 95.4502L460.542 95.4502ZM465.458 60.6376C465.458 59.2803 464.357 58.18 463 58.18C461.643 58.18 460.542 59.2803 460.542 60.6376L465.458 60.6376ZM460.542 25.825C460.542 27.1822 461.643 28.2825 463 28.2825C464.357 28.2825 465.458 27.1822 465.458 25.825L460.542 25.825ZM435.755 7.7686C434.604 8.48796 434.254 10.0042 434.973 11.1552C435.692 12.3061 437.209 12.656 438.36 11.9367L435.755 7.7686ZM411.541 28.6982C412.692 27.9788 413.042 26.4626 412.323 25.3117C411.603 24.1607 410.087 23.8108 408.936 24.5301L411.541 28.6982ZM382.118 41.2917C380.967 42.011 380.617 43.5273 381.336 44.6782C382.055 45.8292 383.572 46.1791 384.723 45.4597L382.118 41.2917ZM357.904 62.2213C359.055 61.5019 359.405 59.9857 358.686 58.8347C357.966 57.6838 356.45 57.3339 355.299 58.0532L357.904 62.2213ZM328.481 74.8148C327.33 75.5341 326.98 77.0503 327.699 78.2013C328.419 79.3523 329.935 79.7022 331.086 78.9828L328.481 74.8148ZM304.267 95.7444C305.418 95.025 305.768 93.5088 305.049 92.3578C304.329 91.2068 302.813 90.8569 301.662 91.5763L304.267 95.7444ZM274.844 108.338C273.693 109.057 273.343 110.573 274.062 111.724C274.782 112.875 276.298 113.225 277.449 112.506L274.844 108.338ZM250.63 129.267C251.781 128.548 252.131 127.032 251.412 125.881C250.692 124.73 249.176 124.38 248.025 125.099L250.63 129.267ZM215.128 125.099C213.977 124.38 212.461 124.73 211.742 125.881C211.022 127.032 211.372 128.548 212.523 129.267L215.128 125.099ZM185.705 112.506C186.856 113.225 188.372 112.875 189.091 111.724C189.811 110.573 189.461 109.057 188.31 108.338L185.705 112.506ZM161.491 91.5763C160.34 90.8569 158.824 91.2068 158.105 92.3578C157.385 93.5088 157.735 95.025 158.886 95.7444L161.491 91.5763ZM132.068 78.9828C133.219 79.7022 134.735 79.3523 135.454 78.2013C136.174 77.0503 135.824 75.5341 134.673 74.8148L132.068 78.9828ZM107.854 58.0532C106.703 57.3339 105.187 57.6837 104.468 58.8347C103.749 59.9857 104.098 61.5019 105.249 62.2213L107.854 58.0532ZM78.4309 45.4597C79.5819 46.1791 81.0981 45.8292 81.8175 44.6782C82.5368 43.5272 82.1869 42.011 81.036 41.2917L78.4309 45.4597ZM54.2175 24.5301C53.0665 23.8108 51.5503 24.1606 50.8309 25.3116C50.1116 26.4626 50.4615 27.9788 51.6124 28.6982L54.2175 24.5301ZM24.794 11.9366C25.9449 12.656 27.4612 12.3061 28.1805 11.1551C28.8999 10.0041 28.55 8.48793 27.399 7.76857L24.794 11.9366ZM-2.30403 25.8249C-2.30403 27.1822 -1.20373 28.2825 0.153563 28.2825C1.51085 28.2825 2.61116 27.1822 2.61116 25.8249L-2.30403 25.8249ZM2.61115 60.6375C2.61115 59.2803 1.51085 58.18 0.153562 58.18C-1.20373 58.18 -2.30403 59.2803 -2.30403 60.6375L2.61115 60.6375ZM-2.30403 95.4502C-2.30403 96.8074 -1.20373 97.9077 0.15356 97.9077C1.51085 97.9077 2.61115 96.8074 2.61115 95.4502L-2.30403 95.4502ZM2.61115 130.263C2.61115 128.905 1.51085 127.805 0.153559 127.805C-1.20373 127.805 -2.30403 128.905 -2.30403 130.263L2.61115 130.263ZM18.7135 158.319C20.0708 158.319 21.1711 157.218 21.1711 155.861C21.1711 154.504 20.0708 153.403 18.7135 153.403L18.7135 158.319ZM39.4494 153.403C38.0921 153.403 36.9918 154.504 36.9918 155.861C36.9918 157.218 38.0921 158.319 39.4494 158.319L39.4494 153.403ZM53.8946 157.51C55.1483 156.99 55.7432 155.552 55.2233 154.298C54.7034 153.044 53.2656 152.449 52.0118 152.969L53.8946 157.51ZM55.1176 149.863C54.5977 151.117 55.1926 152.555 56.4464 153.075C57.7001 153.595 59.138 153 59.6579 151.746L55.1176 149.863ZM60.467 143.592C60.467 142.235 59.3667 141.135 58.0094 141.135C56.6521 141.135 55.5518 142.235 55.5518 143.592L60.467 143.592ZM55.5518 135.439C55.5518 136.796 56.6521 137.897 58.0094 137.897C59.3667 137.897 60.467 136.796 60.467 135.439L55.5518 135.439ZM61.2467 128.448C61.9375 127.28 61.5504 125.773 60.3821 125.082C59.2138 124.391 57.7066 124.778 57.0158 125.947L61.2467 128.448ZM66.4774 120.703C65.1205 120.669 63.9935 121.742 63.9601 123.099C63.9267 124.456 64.9996 125.583 66.3565 125.616L66.4774 120.703ZM81.3207 134.05C82.4717 134.769 83.9879 134.419 84.7073 133.268C85.4266 132.117 85.0768 130.601 83.9258 129.882L81.3207 134.05ZM108.086 144.982C106.935 144.262 105.419 144.612 104.7 145.763C103.98 146.914 104.33 148.43 105.481 149.15L108.086 144.982ZM136.752 158.319C138.109 158.319 139.21 157.218 139.21 155.861C139.21 154.504 138.109 153.403 136.752 153.403L136.752 158.319ZM163.845 153.403C162.487 153.403 161.387 154.504 161.387 155.861C161.387 157.218 162.487 158.319 163.845 158.319L163.845 153.403ZM190.938 158.319C192.295 158.319 193.395 157.218 193.395 155.861C193.395 154.504 192.295 153.403 190.938 153.403L190.938 158.319ZM218.03 153.403C216.673 153.403 215.573 154.504 215.573 155.861C215.573 157.218 216.673 158.319 218.03 158.319L218.03 153.403ZM245.123 158.319C246.48 158.319 247.581 157.218 247.581 155.861C247.581 154.504 246.48 153.403 245.123 153.403L245.123 158.319ZM272.216 153.403C270.859 153.403 269.758 154.504 269.758 155.861C269.758 157.218 270.859 158.319 272.216 158.319L272.216 153.403ZM299.309 158.319C300.666 158.319 301.766 157.218 301.766 155.861C301.766 154.504 300.666 153.403 299.309 153.403L299.309 158.319ZM326.402 153.403C325.044 153.403 323.944 154.504 323.944 155.861C323.944 157.218 325.044 158.319 326.402 158.319L326.402 153.403ZM39.4494 231.227C38.0921 231.227 36.9918 232.328 36.9918 233.685C36.9918 235.042 38.0921 236.142 39.4494 236.142L39.4494 231.227ZM18.7135 236.142C20.0708 236.142 21.1711 235.042 21.1711 233.685C21.1711 232.328 20.0708 231.227 18.7135 231.227L18.7135 236.142ZM-2.30404 253.215C-2.30404 254.572 -1.20374 255.672 0.153553 255.672C1.51084 255.672 2.61115 254.572 2.61115 253.215L-2.30404 253.215ZM2.61114 275.891C2.61114 274.534 1.51084 273.433 0.153553 273.433C-1.20374 273.433 -2.30404 274.534 -2.30404 275.891L2.61114 275.891ZM-2.30404 298.567C-2.30404 299.924 -1.20374 301.025 0.153551 301.025C1.51084 301.025 2.61114 299.924 2.61114 298.567L-2.30404 298.567ZM2.61114 321.243C2.61114 319.886 1.51084 318.785 0.153551 318.785C-1.20374 318.785 -2.30404 319.886 -2.30404 321.243L2.61114 321.243ZM20.7615 343.231C22.1188 343.231 23.2191 342.13 23.2191 340.773C23.2191 339.416 22.1188 338.315 20.7615 338.315L20.7615 343.231ZM45.5934 338.315C44.2361 338.315 43.1358 339.416 43.1358 340.773C43.1358 342.13 44.2361 343.231 45.5934 343.231L45.5934 338.315ZM70.4253 343.231C71.7826 343.231 72.8829 342.13 72.8829 340.773C72.8829 339.416 71.7826 338.315 70.4253 338.315L70.4253 343.231ZM95.2572 338.315C93.8999 338.315 92.7996 339.416 92.7996 340.773C92.7996 342.13 93.8999 343.231 95.2572 343.231L95.2572 338.315ZM118.323 322.213C118.323 320.856 117.222 319.756 115.865 319.756C114.508 319.756 113.408 320.856 113.408 322.213L118.323 322.213ZM113.408 301.477C113.408 302.835 114.508 303.935 115.865 303.935C117.222 303.935 118.323 302.835 118.323 301.477L113.408 301.477ZM97.3052 280.46C95.9479 280.46 94.8476 281.56 94.8476 282.917C94.8476 284.275 95.9479 285.375 97.3052 285.375L97.3052 280.46ZM76.5693 285.375C77.9266 285.375 79.0269 284.275 79.0269 282.917C79.0269 281.56 77.9266 280.46 76.5693 280.46L76.5693 285.375ZM60.4669 266.513C60.4669 265.156 59.3666 264.056 58.0094 264.056C56.6521 264.056 55.5518 265.156 55.5518 266.513L60.4669 266.513ZM55.5518 250.089C55.5518 251.446 56.6521 252.547 58.0094 252.547C59.3666 252.547 60.4669 251.446 60.4669 250.089L55.5518 250.089ZM465.458 282.917L465.458 272.657L460.542 272.657L460.542 282.917L465.458 282.917ZM465.458 252.137L465.458 241.877L460.542 241.877L460.542 252.137L465.458 252.137ZM465.458 241.877C465.458 235.995 460.69 231.227 454.808 231.227L454.808 236.142C457.975 236.142 460.542 238.71 460.542 241.877L465.458 241.877ZM454.808 231.227L444.44 231.227L444.44 236.142L454.808 236.142L454.808 231.227ZM423.704 231.227L413.336 231.227L413.336 236.142L423.704 236.142L423.704 231.227ZM413.336 231.227C407.455 231.227 402.687 235.995 402.687 241.877L407.602 241.877C407.602 238.71 410.169 236.142 413.336 236.142L413.336 231.227ZM402.687 241.877L402.687 250.089L407.602 250.089L407.602 241.877L402.687 241.877ZM402.687 266.513L402.687 274.725L407.602 274.725L407.602 266.513L402.687 266.513ZM402.687 274.725C402.687 277.892 400.119 280.46 396.952 280.46L396.952 285.375C402.834 285.375 407.602 280.607 407.602 274.725L402.687 274.725ZM396.952 280.46L386.584 280.46L386.584 285.375L396.952 285.375L396.952 280.46ZM365.848 280.46L355.48 280.46L355.48 285.375L365.848 285.375L365.848 280.46ZM355.48 280.46C349.599 280.46 344.831 285.228 344.831 291.109L349.746 291.109C349.746 287.942 352.313 285.375 355.48 285.375L355.48 280.46ZM344.831 291.109L344.831 301.477L349.746 301.477L349.746 291.109L344.831 291.109ZM344.831 322.213L344.831 332.581L349.746 332.581L349.746 322.213L344.831 322.213ZM344.831 332.581C344.831 338.463 349.599 343.231 355.48 343.231L355.48 338.316C352.313 338.316 349.746 335.748 349.746 332.581L344.831 332.581ZM355.48 343.231L367.896 343.231L367.896 338.316L355.48 338.316L355.48 343.231ZM392.728 343.231L417.56 343.231L417.56 338.316L392.728 338.316L392.728 343.231ZM442.392 343.231L454.808 343.231L454.808 338.316L442.392 338.316L442.392 343.231ZM454.808 343.231C460.69 343.231 465.458 338.463 465.458 332.581L460.542 332.581C460.542 335.748 457.975 338.316 454.808 338.316L454.808 343.231ZM465.458 332.581L465.458 320.165L460.542 320.165L460.542 332.581L465.458 332.581ZM465.458 295.333L465.458 282.917L460.542 282.917L460.542 295.333L465.458 295.333ZM345.592 156.7L357.672 149.15L355.067 144.982L342.987 152.532L345.592 156.7ZM381.833 134.05L393.913 126.499L391.308 122.331L379.228 129.882L381.833 134.05ZM393.913 126.499C394.856 125.91 395.842 125.64 396.797 125.616L396.676 120.703C394.855 120.748 393.008 121.269 391.308 122.331L393.913 126.499ZM401.907 128.449C402.393 129.271 402.687 130.251 402.687 131.362L407.602 131.362C407.602 129.357 407.065 127.515 406.138 125.947L401.907 128.449ZM402.687 131.362L402.687 135.439L407.602 135.439L407.602 131.362L402.687 131.362ZM402.687 143.592L402.687 147.669L407.602 147.669L407.602 143.592L402.687 143.592ZM402.687 147.669C402.687 149.109 402.974 150.487 403.496 151.746L408.036 149.863C407.757 149.191 407.602 148.451 407.602 147.669L402.687 147.669ZM409.259 157.51C410.518 158.032 411.897 158.319 413.336 158.319L413.336 153.403C412.554 153.403 411.814 153.248 411.142 152.969L409.259 157.51ZM413.336 158.319L423.704 158.319L423.704 153.403L413.336 153.403L413.336 158.319ZM444.44 158.319L454.808 158.319L454.808 153.403L444.44 153.403L444.44 158.319ZM454.808 158.319C460.69 158.319 465.458 153.551 465.458 147.669L460.542 147.669C460.542 150.836 457.975 153.403 454.808 153.403L454.808 158.319ZM465.458 147.669L465.458 130.263L460.542 130.263L460.542 147.669L465.458 147.669ZM465.458 95.4502L465.458 60.6376L460.542 60.6376L460.542 95.4502L465.458 95.4502ZM465.458 25.825L465.458 8.41865L460.542 8.41865L460.542 25.825L465.458 25.825ZM465.458 8.41865C465.458 0.0541062 456.257 -5.04538 449.164 -0.612175L451.769 3.55589C455.588 1.16879 460.542 3.91466 460.542 8.41865L465.458 8.41865ZM449.164 -0.612175L435.755 7.7686L438.36 11.9367L451.769 3.55589L449.164 -0.612175ZM408.936 24.5301L382.118 41.2917L384.723 45.4597L411.541 28.6982L408.936 24.5301ZM355.299 58.0532L328.481 74.8148L331.086 78.9828L357.904 62.2213L355.299 58.0532ZM301.662 91.5763L274.844 108.338L277.449 112.506L304.267 95.7444L301.662 91.5763ZM248.025 125.099L234.616 133.48L237.221 137.648L250.63 129.267L248.025 125.099ZM234.616 133.48C232.757 134.642 230.397 134.642 228.538 133.48L225.933 137.648C229.386 139.807 233.768 139.807 237.221 137.648L234.616 133.48ZM228.538 133.48L215.128 125.099L212.523 129.267L225.933 137.648L228.538 133.48ZM188.31 108.338L161.491 91.5763L158.886 95.7444L185.705 112.506L188.31 108.338ZM134.673 74.8148L107.854 58.0532L105.249 62.2213L132.068 78.9828L134.673 74.8148ZM81.036 41.2917L54.2175 24.5301L51.6124 28.6982L78.4309 45.4597L81.036 41.2917ZM27.399 7.76857L13.9898 -0.6122L11.3847 3.55587L24.794 11.9366L27.399 7.76857ZM13.9898 -0.6122C6.89666 -5.0454 -2.30403 0.0540748 -2.30403 8.41862L2.61116 8.41862C2.61116 3.91463 7.56538 1.16876 11.3847 3.55587L13.9898 -0.6122ZM-2.30403 8.41862L-2.30403 25.8249L2.61116 25.8249L2.61116 8.41862L-2.30403 8.41862ZM-2.30403 60.6375L-2.30403 95.4502L2.61115 95.4502L2.61115 60.6375L-2.30403 60.6375ZM-2.30403 130.263L-2.30403 147.669L2.61115 147.669L2.61115 130.263L-2.30403 130.263ZM-2.30403 147.669C-2.30403 153.551 2.46394 158.319 8.34553 158.319L8.34553 153.403C5.17852 153.403 2.61115 150.836 2.61115 147.669L-2.30403 147.669ZM8.34553 158.319L18.7135 158.319L18.7135 153.403L8.34553 153.403L8.34553 158.319ZM39.4494 158.319L49.8174 158.319L49.8174 153.403L39.4494 153.403L39.4494 158.319ZM49.8174 158.319C51.2569 158.319 52.6355 158.032 53.8946 157.51L52.0118 152.969C51.3391 153.248 50.5995 153.403 49.8174 153.403L49.8174 158.319ZM59.6579 151.746C60.18 150.487 60.467 149.109 60.467 147.669L55.5518 147.669C55.5518 148.451 55.3966 149.191 55.1176 149.863L59.6579 151.746ZM60.467 147.669L60.467 143.592L55.5518 143.592L55.5518 147.669L60.467 147.669ZM60.467 135.439L60.467 131.362L55.5518 131.362L55.5518 135.439L60.467 135.439ZM60.467 131.362C60.467 130.251 60.7605 129.271 61.2467 128.448L57.0158 125.947C56.0885 127.515 55.5518 129.357 55.5518 131.362L60.467 131.362ZM66.3565 125.616C67.3114 125.64 68.298 125.91 69.2406 126.499L71.8456 122.331C70.1452 121.269 68.2986 120.748 66.4774 120.703L66.3565 125.616ZM69.2406 126.499L81.3207 134.05L83.9258 129.882L71.8456 122.331L69.2406 126.499ZM105.481 149.15L117.561 156.7L120.166 152.532L108.086 144.982L105.481 149.15ZM117.561 156.7C119.254 157.758 121.21 158.319 123.206 158.319L123.206 153.403C122.131 153.403 121.078 153.101 120.166 152.532L117.561 156.7ZM123.206 158.319L136.752 158.319L136.752 153.403L123.206 153.403L123.206 158.319ZM163.845 158.319L190.938 158.319L190.938 153.403L163.845 153.403L163.845 158.319ZM218.03 158.319L245.123 158.319L245.123 153.403L218.03 153.403L218.03 158.319ZM272.216 158.319L299.309 158.319L299.309 153.403L272.216 153.403L272.216 158.319ZM326.402 158.319L339.948 158.319L339.948 153.403L326.402 153.403L326.402 158.319ZM339.948 158.319C341.944 158.319 343.9 157.758 345.592 156.7L342.987 152.532C342.076 153.101 341.023 153.403 339.948 153.403L339.948 158.319ZM60.467 241.877C60.467 235.995 55.699 231.227 49.8174 231.227L49.8174 236.142C52.9844 236.142 55.5518 238.71 55.5518 241.877L60.467 241.877ZM49.8174 231.227L39.4494 231.227L39.4494 236.142L49.8174 236.142L49.8174 231.227ZM18.7135 231.227L8.34552 231.227L8.34552 236.142L18.7135 236.142L18.7135 231.227ZM8.34552 231.227C2.46392 231.227 -2.30404 235.995 -2.30404 241.877L2.61115 241.877C2.61115 238.71 5.17851 236.142 8.34552 236.142L8.34552 231.227ZM-2.30404 241.877L-2.30404 253.215L2.61115 253.215L2.61115 241.877L-2.30404 241.877ZM-2.30404 275.891L-2.30404 298.567L2.61114 298.567L2.61114 275.891L-2.30404 275.891ZM-2.30404 321.243L-2.30404 332.581L2.61114 332.581L2.61114 321.243L-2.30404 321.243ZM-2.30404 332.581C-2.30404 338.463 2.46393 343.231 8.34552 343.231L8.34552 338.315C5.17851 338.315 2.61114 335.748 2.61114 332.581L-2.30404 332.581ZM8.34552 343.231L20.7615 343.231L20.7615 338.315L8.34552 338.315L8.34552 343.231ZM45.5934 343.231L70.4253 343.231L70.4253 338.315L45.5934 338.315L45.5934 343.231ZM95.2572 343.231L107.673 343.231L107.673 338.315L95.2572 338.315L95.2572 343.231ZM107.673 343.231C113.555 343.231 118.323 338.463 118.323 332.581L113.408 332.581C113.408 335.748 110.84 338.315 107.673 338.315L107.673 343.231ZM118.323 332.581L118.323 322.213L113.408 322.213L113.408 332.581L118.323 332.581ZM118.323 301.477L118.323 291.109L113.408 291.109L113.408 301.477L118.323 301.477ZM118.323 291.109C118.323 285.228 113.555 280.46 107.673 280.46L107.673 285.375C110.84 285.375 113.408 287.942 113.408 291.109L118.323 291.109ZM107.673 280.46L97.3052 280.46L97.3052 285.375L107.673 285.375L107.673 280.46ZM76.5693 280.46L66.2013 280.46L66.2013 285.375L76.5693 285.375L76.5693 280.46ZM66.2013 280.46C63.0343 280.46 60.4669 277.892 60.4669 274.725L55.5518 274.725C55.5518 280.607 60.3197 285.375 66.2013 285.375L66.2013 280.46ZM60.4669 274.725L60.4669 266.513L55.5518 266.513L55.5518 274.725L60.4669 274.725ZM60.4669 250.089L60.467 241.877L55.5518 241.877L55.5518 250.089L60.4669 250.089ZM344.29 154.616L341.685 150.448L344.29 154.616ZM339.948 155.861L339.948 150.946L339.948 155.861ZM392.61 124.415L390.005 120.247L392.61 124.415ZM227.235 135.564L224.63 139.732L227.235 135.564ZM235.919 135.564L238.524 139.732L235.919 135.564ZM12.6873 1.47183L15.2923 -2.69623L12.6873 1.47183ZM123.206 155.861L123.206 150.946L123.206 155.861ZM70.5431 124.415L73.1481 120.247L70.5431 124.415ZM467.915 272.657C467.915 269.943 465.715 267.742 463 267.742C460.285 267.742 458.085 269.943 458.085 272.657L467.915 272.657ZM458.085 252.137C458.085 254.851 460.285 257.052 463 257.052C465.715 257.052 467.915 254.851 467.915 252.137L458.085 252.137ZM444.44 228.77C441.725 228.77 439.525 230.97 439.525 233.685C439.525 236.399 441.725 238.6 444.44 238.6L444.44 228.77ZM423.704 238.6C426.419 238.6 428.619 236.399 428.619 233.685C428.619 230.97 426.419 228.77 423.704 228.77L423.704 238.6ZM400.229 250.089C400.229 252.803 402.43 255.004 405.144 255.004C407.859 255.004 410.059 252.803 410.059 250.089L400.229 250.089ZM410.059 266.513C410.059 263.799 407.859 261.598 405.144 261.598C402.43 261.598 400.229 263.799 400.229 266.513L410.059 266.513ZM386.584 278.002C383.87 278.002 381.669 280.203 381.669 282.917C381.669 285.632 383.87 287.832 386.584 287.832L386.584 278.002ZM365.848 287.832C368.563 287.832 370.763 285.632 370.763 282.917C370.763 280.203 368.563 278.002 365.848 278.002L365.848 287.832ZM342.373 301.477C342.373 304.192 344.574 306.392 347.288 306.392C350.003 306.392 352.204 304.192 352.204 301.477L342.373 301.477ZM352.204 322.213C352.204 319.499 350.003 317.298 347.288 317.298C344.574 317.298 342.373 319.499 342.373 322.213L352.204 322.213ZM367.896 345.688C370.611 345.688 372.811 343.488 372.811 340.773C372.811 338.059 370.611 335.858 367.896 335.858L367.896 345.688ZM392.728 335.858C390.014 335.858 387.813 338.059 387.813 340.773C387.813 343.488 390.014 345.688 392.728 345.688L392.728 335.858ZM417.56 345.688C420.275 345.688 422.475 343.488 422.475 340.773C422.475 338.059 420.275 335.858 417.56 335.858L417.56 345.688ZM442.392 335.858C439.677 335.858 437.477 338.059 437.477 340.773C437.477 343.488 439.677 345.688 442.392 345.688L442.392 335.858ZM467.915 320.165C467.915 317.451 465.715 315.25 463 315.25C460.285 315.25 458.085 317.451 458.085 320.165L467.915 320.165ZM458.085 295.333C458.085 298.048 460.285 300.248 463 300.248C465.715 300.248 467.915 298.048 467.915 295.333L458.085 295.333ZM358.975 151.234C361.277 149.795 361.977 146.763 360.538 144.461C359.099 142.159 356.067 141.459 353.765 142.898L358.975 151.234ZM377.925 127.797C375.623 129.236 374.924 132.269 376.362 134.571C377.801 136.873 380.833 137.572 383.135 136.134L377.925 127.797ZM396.858 128.073C399.571 128.007 401.717 125.752 401.65 123.039C401.584 120.325 399.329 118.179 396.616 118.246L396.858 128.073ZM408.253 124.696C406.872 122.359 403.857 121.585 401.521 122.967C399.184 124.348 398.41 127.363 399.791 129.699L408.253 124.696ZM400.229 135.439C400.229 138.154 402.43 140.354 405.144 140.354C407.859 140.354 410.059 138.154 410.059 135.439L400.229 135.439ZM410.059 143.592C410.059 140.878 407.859 138.677 405.144 138.677C402.43 138.677 400.229 140.878 400.229 143.592L410.059 143.592ZM401.226 152.688C402.265 155.195 405.141 156.385 407.649 155.345C410.156 154.305 411.346 151.43 410.306 148.922L401.226 152.688ZM412.083 150.699C409.576 149.659 406.7 150.849 405.66 153.357C404.62 155.864 405.81 158.74 408.318 159.78L412.083 150.699ZM423.704 160.776C426.419 160.776 428.619 158.576 428.619 155.861C428.619 153.146 426.419 150.946 423.704 150.946L423.704 160.776ZM444.44 150.946C441.725 150.946 439.525 153.146 439.525 155.861C439.525 158.576 441.725 160.776 444.44 160.776L444.44 150.946ZM467.915 130.263C467.915 127.548 465.715 125.348 463 125.348C460.285 125.348 458.085 127.548 458.085 130.263L467.915 130.263ZM458.085 95.4502C458.085 98.1648 460.285 100.365 463 100.365C465.715 100.365 467.915 98.1648 467.915 95.4502L458.085 95.4502ZM467.915 60.6376C467.915 57.923 465.715 55.7224 463 55.7224C460.285 55.7224 458.085 57.923 458.085 60.6376L467.915 60.6376ZM458.085 25.825C458.085 28.5395 460.285 30.7401 463 30.7401C465.715 30.7401 467.915 28.5395 467.915 25.825L458.085 25.825ZM434.452 5.68456C432.15 7.12329 431.45 10.1557 432.889 12.4577C434.328 14.7596 437.36 15.4594 439.662 14.0207L434.452 5.68456ZM412.844 30.7822C415.146 29.3435 415.845 26.3111 414.407 24.0091C412.968 21.7072 409.936 21.0074 407.634 22.4461L412.844 30.7822ZM380.815 39.2076C378.513 40.6464 377.813 43.6788 379.252 45.9808C380.691 48.2827 383.723 48.9825 386.025 47.5438L380.815 39.2076ZM359.207 64.3053C361.509 62.8666 362.208 59.8342 360.77 57.5322C359.331 55.2303 356.299 54.5305 353.997 55.9692L359.207 64.3053ZM327.178 72.7307C324.876 74.1695 324.176 77.2019 325.615 79.5038C327.054 81.8058 330.086 82.5056 332.388 81.0669L327.178 72.7307ZM305.57 97.8284C307.872 96.3897 308.571 93.3573 307.133 91.0553C305.694 88.7533 302.662 88.0536 300.36 89.4923L305.57 97.8284ZM273.541 106.254C271.239 107.693 270.539 110.725 271.978 113.027C273.417 115.329 276.449 116.029 278.751 114.59L273.541 106.254ZM251.933 131.351C254.235 129.913 254.935 126.88 253.496 124.578C252.057 122.276 249.025 121.577 246.723 123.015L251.933 131.351ZM216.431 123.015C214.129 121.577 211.096 122.276 209.658 124.578C208.219 126.88 208.919 129.913 211.221 131.352L216.431 123.015ZM184.402 114.59C186.704 116.029 189.737 115.329 191.175 113.027C192.614 110.725 191.914 107.693 189.612 106.254L184.402 114.59ZM162.794 89.4923C160.492 88.0535 157.46 88.7533 156.021 91.0553C154.582 93.3573 155.282 96.3897 157.584 97.8284L162.794 89.4923ZM130.765 81.0669C133.067 82.5056 136.1 81.8058 137.538 79.5038C138.977 77.2019 138.277 74.1695 135.975 72.7307L130.765 81.0669ZM109.157 55.9692C106.855 54.5305 103.823 55.2302 102.384 57.5322C100.945 59.8342 101.645 62.8666 103.947 64.3053L109.157 55.9692ZM77.1284 47.5438C79.4304 48.9825 82.4628 48.2827 83.9015 45.9807C85.3402 43.6788 84.6404 40.6464 82.3385 39.2076L77.1284 47.5438ZM55.52 22.4461C53.218 21.0074 50.1856 21.7071 48.7469 24.0091C47.3082 26.3111 48.008 29.3435 50.3099 30.7822L55.52 22.4461ZM23.4914 14.0207C25.7934 15.4594 28.8258 14.7596 30.2646 12.4576C31.7033 10.1557 31.0035 7.12326 28.7015 5.68453L23.4914 14.0207ZM-4.76162 25.8249C-4.76162 28.5395 -2.56102 30.7401 0.153563 30.7401C2.86814 30.7401 5.06875 28.5395 5.06875 25.8249L-4.76162 25.8249ZM5.06875 60.6375C5.06875 57.923 2.86814 55.7224 0.153562 55.7224C-2.56102 55.7224 -4.76162 57.923 -4.76162 60.6375L5.06875 60.6375ZM-4.76162 95.4502C-4.76162 98.1647 -2.56102 100.365 0.15356 100.365C2.86814 100.365 5.06874 98.1647 5.06874 95.4502L-4.76162 95.4502ZM5.06874 130.263C5.06874 127.548 2.86814 125.348 0.153559 125.348C-2.56102 125.348 -4.76163 127.548 -4.76163 130.263L5.06874 130.263ZM18.7135 160.776C21.4281 160.776 23.6287 158.576 23.6287 155.861C23.6287 153.146 21.4281 150.946 18.7135 150.946L18.7135 160.776ZM39.4494 150.946C36.7348 150.946 34.5342 153.146 34.5342 155.861C34.5342 158.576 36.7348 160.776 39.4494 160.776L39.4494 150.946ZM54.836 159.78C57.3435 158.74 58.5333 155.864 57.4935 153.357C56.4536 150.849 53.5779 149.659 51.0704 150.699L54.836 159.78ZM52.8475 148.922C51.8076 151.43 52.9974 154.305 55.505 155.345C58.0125 156.385 60.8882 155.195 61.928 152.688L52.8475 148.922ZM62.9245 143.592C62.9245 140.878 60.7239 138.677 58.0094 138.677C55.2948 138.677 53.0942 140.878 53.0942 143.592L62.9245 143.592ZM53.0942 135.439C53.0942 138.154 55.2948 140.354 58.0094 140.354C60.7239 140.354 62.9245 138.154 62.9245 135.439L53.0942 135.439ZM63.3621 129.699C64.7438 127.363 63.9696 124.348 61.633 122.967C59.2963 121.585 56.282 122.359 54.9004 124.696L63.3621 129.699ZM66.5378 118.246C63.8241 118.179 61.57 120.325 61.5032 123.039C61.4365 125.752 63.5823 128.006 66.296 128.073L66.5378 118.246ZM80.0182 136.134C82.3202 137.572 85.3526 136.873 86.7913 134.571C88.23 132.269 87.5303 129.236 85.2283 127.797L80.0182 136.134ZM109.389 142.898C107.087 141.459 104.054 142.159 102.616 144.461C101.177 146.763 101.877 149.795 104.179 151.234L109.389 142.898ZM136.752 160.776C139.467 160.776 141.667 158.576 141.667 155.861C141.667 153.146 139.467 150.946 136.752 150.946L136.752 160.776ZM163.845 150.946C161.13 150.946 158.93 153.146 158.93 155.861C158.93 158.576 161.13 160.776 163.845 160.776L163.845 150.946ZM190.938 160.776C193.652 160.776 195.853 158.576 195.853 155.861C195.853 153.146 193.652 150.946 190.938 150.946L190.938 160.776ZM218.03 150.946C215.316 150.946 213.115 153.146 213.115 155.861C213.115 158.576 215.316 160.776 218.03 160.776L218.03 150.946ZM245.123 160.776C247.838 160.776 250.038 158.576 250.038 155.861C250.038 153.146 247.838 150.946 245.123 150.946L245.123 160.776ZM272.216 150.946C269.501 150.946 267.301 153.146 267.301 155.861C267.301 158.576 269.501 160.776 272.216 160.776L272.216 150.946ZM299.309 160.776C302.023 160.776 304.224 158.576 304.224 155.861C304.224 153.146 302.023 150.946 299.309 150.946L299.309 160.776ZM326.402 150.946C323.687 150.946 321.486 153.146 321.486 155.861C321.486 158.576 323.687 160.776 326.402 160.776L326.402 150.946ZM39.4494 228.77C36.7348 228.77 34.5342 230.97 34.5342 233.685C34.5342 236.399 36.7348 238.6 39.4494 238.6L39.4494 228.77ZM18.7135 238.6C21.4281 238.6 23.6287 236.399 23.6287 233.685C23.6287 230.97 21.4281 228.77 18.7135 228.77L18.7135 238.6ZM-4.76163 253.215C-4.76163 255.929 -2.56103 258.13 0.153553 258.13C2.86813 258.13 5.06874 255.929 5.06874 253.215L-4.76163 253.215ZM5.06874 275.891C5.06874 273.176 2.86813 270.976 0.153553 270.976C-2.56103 270.976 -4.76163 273.176 -4.76163 275.891L5.06874 275.891ZM-4.76163 298.567C-4.76163 301.282 -2.56103 303.482 0.153551 303.482C2.86813 303.482 5.06874 301.282 5.06874 298.567L-4.76163 298.567ZM5.06873 321.243C5.06873 318.528 2.86813 316.328 0.153551 316.328C-2.56103 316.328 -4.76163 318.528 -4.76163 321.243L5.06873 321.243ZM20.7615 345.688C23.4761 345.688 25.6767 343.488 25.6767 340.773C25.6767 338.059 23.4761 335.858 20.7615 335.858L20.7615 345.688ZM45.5934 335.858C42.8788 335.858 40.6782 338.059 40.6782 340.773C40.6782 343.488 42.8788 345.688 45.5934 345.688L45.5934 335.858ZM70.4253 345.688C73.1399 345.688 75.3405 343.488 75.3405 340.773C75.3405 338.059 73.1399 335.858 70.4253 335.858L70.4253 345.688ZM95.2572 335.858C92.5427 335.858 90.3421 338.059 90.3421 340.773C90.3421 343.488 92.5427 345.688 95.2572 345.688L95.2572 335.858ZM120.78 322.213C120.78 319.499 118.58 317.298 115.865 317.298C113.151 317.298 110.95 319.499 110.95 322.213L120.78 322.213ZM110.95 301.477C110.95 304.192 113.151 306.392 115.865 306.392C118.58 306.392 120.78 304.192 120.78 301.477L110.95 301.477ZM97.3052 278.002C94.5906 278.002 92.39 280.203 92.39 282.917C92.39 285.632 94.5906 287.832 97.3052 287.832L97.3052 278.002ZM76.5693 287.832C79.2839 287.832 81.4845 285.632 81.4845 282.917C81.4845 280.203 79.2839 278.002 76.5693 278.002L76.5693 287.832ZM62.9245 266.513C62.9245 263.799 60.7239 261.598 58.0094 261.598C55.2948 261.598 53.0942 263.799 53.0942 266.513L62.9245 266.513ZM53.0942 250.089C53.0942 252.803 55.2948 255.004 58.0094 255.004C60.7239 255.004 62.9245 252.803 62.9245 250.089L53.0942 250.089ZM467.915 282.917L467.915 272.657L458.085 272.657L458.085 282.917L467.915 282.917ZM467.915 252.137L467.915 241.877L458.085 241.877L458.085 252.137L467.915 252.137ZM467.915 241.877C467.915 234.638 462.047 228.77 454.808 228.77L454.808 238.6C456.618 238.6 458.085 240.067 458.085 241.877L467.915 241.877ZM454.808 228.77L444.44 228.77L444.44 238.6L454.808 238.6L454.808 228.77ZM423.704 228.77L413.336 228.77L413.336 238.6L423.704 238.6L423.704 228.77ZM413.336 228.77C406.097 228.77 400.229 234.638 400.229 241.877L410.059 241.877C410.059 240.067 411.526 238.6 413.336 238.6L413.336 228.77ZM400.229 241.877L400.229 250.089L410.059 250.089L410.059 241.877L400.229 241.877ZM400.229 266.513L400.229 274.725L410.059 274.725L410.059 266.513L400.229 266.513ZM400.229 274.725C400.229 276.535 398.762 278.002 396.952 278.002L396.952 287.832C404.191 287.832 410.059 281.964 410.059 274.725L400.229 274.725ZM396.952 278.002L386.584 278.002L386.584 287.832L396.952 287.832L396.952 278.002ZM365.848 278.002L355.48 278.002L355.48 287.832L365.848 287.832L365.848 278.002ZM355.48 278.002C348.241 278.002 342.373 283.87 342.373 291.109L352.204 291.109C352.204 289.3 353.671 287.832 355.48 287.832L355.48 278.002ZM342.373 291.109L342.373 301.477L352.204 301.477L352.204 291.109L342.373 291.109ZM342.373 322.213L342.373 332.581L352.204 332.581L352.204 322.213L342.373 322.213ZM342.373 332.581C342.373 339.82 348.241 345.688 355.48 345.688L355.48 335.858C353.671 335.858 352.204 334.391 352.204 332.581L342.373 332.581ZM355.48 345.688L367.896 345.688L367.896 335.858L355.48 335.858L355.48 345.688ZM392.728 345.688L417.56 345.688L417.56 335.858L392.728 335.858L392.728 345.688ZM442.392 345.688L454.808 345.688L454.808 335.858L442.392 335.858L442.392 345.688ZM454.808 345.688C462.047 345.688 467.915 339.82 467.915 332.581L458.085 332.581C458.085 334.391 456.618 335.858 454.808 335.858L454.808 345.688ZM467.915 332.581L467.915 320.165L458.085 320.165L458.085 332.581L467.915 332.581ZM467.915 295.333L467.915 282.917L458.085 282.917L458.085 295.333L467.915 295.333ZM346.895 158.784L358.975 151.234L353.765 142.898L341.685 150.448L346.895 158.784ZM383.135 136.134L395.216 128.584L390.005 120.247L377.925 127.797L383.135 136.134ZM395.216 128.584C395.779 128.231 396.336 128.086 396.858 128.073L396.616 118.246C394.361 118.301 392.085 118.948 390.005 120.247L395.216 128.584ZM399.791 129.699C400.057 130.149 400.229 130.697 400.229 131.362L410.059 131.362C410.059 128.91 409.401 126.637 408.253 124.696L399.791 129.699ZM400.229 131.362L400.229 135.439L410.059 135.439L410.059 131.362L400.229 131.362ZM400.229 143.592L400.229 147.669L410.059 147.669L410.059 143.592L400.229 143.592ZM400.229 147.669C400.229 149.437 400.582 151.135 401.226 152.688L410.306 148.922C410.149 148.543 410.059 148.122 410.059 147.669L400.229 147.669ZM408.318 159.78C409.87 160.423 411.568 160.776 413.336 160.776L413.336 150.946C412.883 150.946 412.463 150.857 412.083 150.699L408.318 159.78ZM413.336 160.776L423.704 160.776L423.704 150.946L413.336 150.946L413.336 160.776ZM444.44 160.776L454.808 160.776L454.808 150.946L444.44 150.946L444.44 160.776ZM454.808 160.776C462.047 160.776 467.915 154.908 467.915 147.669L458.085 147.669C458.085 149.479 456.618 150.946 454.808 150.946L454.808 160.776ZM467.915 147.669L467.915 130.263L458.085 130.263L458.085 147.669L467.915 147.669ZM467.915 95.4502L467.915 60.6376L458.085 60.6376L458.085 95.4502L467.915 95.4502ZM467.915 25.825L467.915 8.41865L458.085 8.41865L458.085 25.825L467.915 25.825ZM467.915 8.41865C467.915 -1.87617 456.591 -8.15246 447.861 -2.69621L453.071 5.63993C455.254 4.27587 458.085 5.84493 458.085 8.41865L467.915 8.41865ZM447.861 -2.69621L434.452 5.68456L439.662 14.0207L453.071 5.63993L447.861 -2.69621ZM407.634 22.4461L380.815 39.2076L386.025 47.5438L412.844 30.7822L407.634 22.4461ZM353.997 55.9692L327.178 72.7307L332.388 81.0669L359.207 64.3053L353.997 55.9692ZM300.36 89.4923L273.541 106.254L278.751 114.59L305.57 97.8284L300.36 89.4923ZM246.723 123.015L233.313 131.396L238.524 139.732L251.933 131.351L246.723 123.015ZM233.313 131.396C232.251 132.06 230.903 132.06 229.84 131.396L224.63 139.732C228.88 142.389 234.273 142.389 238.524 139.732L233.313 131.396ZM229.84 131.396L216.431 123.015L211.221 131.352L224.63 139.732L229.84 131.396ZM189.612 106.254L162.794 89.4923L157.584 97.8284L184.402 114.59L189.612 106.254ZM135.975 72.7307L109.157 55.9692L103.947 64.3053L130.765 81.0669L135.975 72.7307ZM82.3385 39.2076L55.52 22.4461L50.3099 30.7822L77.1284 47.5438L82.3385 39.2076ZM28.7015 5.68453L15.2923 -2.69623L10.0822 5.6399L23.4914 14.0207L28.7015 5.68453ZM15.2923 -2.69623C6.56231 -8.15249 -4.76162 -1.8762 -4.76162 8.41862L5.06875 8.41862C5.06875 5.8449 7.89973 4.27584 10.0822 5.6399L15.2923 -2.69623ZM-4.76162 8.41862L-4.76162 25.8249L5.06875 25.8249L5.06875 8.41862L-4.76162 8.41862ZM-4.76162 60.6375L-4.76162 95.4502L5.06874 95.4502L5.06875 60.6375L-4.76162 60.6375ZM-4.76163 130.263L-4.76163 147.669L5.06874 147.669L5.06874 130.263L-4.76163 130.263ZM-4.76163 147.669C-4.76163 154.908 1.10664 160.776 8.34553 160.776L8.34553 150.946C6.53581 150.946 5.06874 149.479 5.06874 147.669L-4.76163 147.669ZM8.34553 160.776L18.7135 160.776L18.7135 150.946L8.34553 150.946L8.34553 160.776ZM39.4494 160.776L49.8174 160.776L49.8174 150.946L39.4494 150.946L39.4494 160.776ZM49.8174 160.776C51.5856 160.776 53.2837 160.423 54.836 159.78L51.0704 150.699C50.6909 150.857 50.2708 150.946 49.8174 150.946L49.8174 160.776ZM61.928 152.688C62.5717 151.135 62.9245 149.437 62.9245 147.669L53.0942 147.669C53.0942 148.122 53.0049 148.543 52.8475 148.922L61.928 152.688ZM62.9245 147.669L62.9245 143.592L53.0942 143.592L53.0942 147.669L62.9245 147.669ZM62.9245 135.439L62.9245 131.362L53.0942 131.362L53.0942 135.439L62.9245 135.439ZM62.9245 131.362C62.9245 130.697 63.0965 130.149 63.3621 129.699L54.9004 124.696C53.7526 126.637 53.0942 128.91 53.0942 131.362L62.9245 131.362ZM66.296 128.073C66.8178 128.086 67.3743 128.231 67.938 128.583L73.1481 120.247C71.0689 118.948 68.7922 118.301 66.5378 118.246L66.296 128.073ZM67.938 128.583L80.0182 136.134L85.2283 127.797L73.1481 120.247L67.938 128.583ZM104.179 151.234L116.259 158.784L121.469 150.448L109.389 142.898L104.179 151.234ZM116.259 158.784C118.342 160.086 120.749 160.776 123.206 160.776L123.206 150.946C122.591 150.946 121.99 150.773 121.469 150.448L116.259 158.784ZM123.206 160.776L136.752 160.776L136.752 150.946L123.206 150.946L123.206 160.776ZM163.845 160.776L190.938 160.776L190.938 150.946L163.845 150.946L163.845 160.776ZM218.03 160.776L245.123 160.776L245.123 150.946L218.03 150.946L218.03 160.776ZM272.216 160.776L299.309 160.776L299.309 150.946L272.216 150.946L272.216 160.776ZM326.402 160.776L339.948 160.776L339.948 150.946L326.402 150.946L326.402 160.776ZM339.948 160.776C342.405 160.776 344.812 160.086 346.895 158.784L341.685 150.448C341.164 150.773 340.562 150.946 339.948 150.946L339.948 160.776ZM62.9245 241.877C62.9245 234.638 57.0563 228.77 49.8174 228.77L49.8174 238.6C51.6271 238.6 53.0942 240.067 53.0942 241.877L62.9245 241.877ZM49.8174 228.77L39.4494 228.77L39.4494 238.6L49.8174 238.6L49.8174 228.77ZM18.7135 228.77L8.34552 228.77L8.34552 238.6L18.7135 238.6L18.7135 228.77ZM8.34552 228.77C1.10663 228.77 -4.76163 234.638 -4.76163 241.877L5.06874 241.877C5.06874 240.067 6.53581 238.6 8.34552 238.6L8.34552 228.77ZM-4.76163 241.877L-4.76163 253.215L5.06874 253.215L5.06874 241.877L-4.76163 241.877ZM-4.76163 275.891L-4.76163 298.567L5.06874 298.567L5.06874 275.891L-4.76163 275.891ZM-4.76163 321.243L-4.76163 332.581L5.06873 332.581L5.06873 321.243L-4.76163 321.243ZM-4.76163 332.581C-4.76163 339.82 1.10664 345.688 8.34552 345.688L8.34552 335.858C6.5358 335.858 5.06873 334.391 5.06873 332.581L-4.76163 332.581ZM8.34552 345.688L20.7615 345.688L20.7615 335.858L8.34552 335.858L8.34552 345.688ZM45.5934 345.688L70.4253 345.688L70.4253 335.858L45.5934 335.858L45.5934 345.688ZM95.2572 345.688L107.673 345.688L107.673 335.858L95.2572 335.858L95.2572 345.688ZM107.673 345.688C114.912 345.688 120.78 339.82 120.78 332.581L110.95 332.581C110.95 334.391 109.483 335.858 107.673 335.858L107.673 345.688ZM120.78 332.581L120.78 322.213L110.95 322.213L110.95 332.581L120.78 332.581ZM120.78 301.477L120.78 291.109L110.95 291.109L110.95 301.477L120.78 301.477ZM120.78 291.109C120.78 283.87 114.912 278.002 107.673 278.002L107.673 287.832C109.483 287.832 110.95 289.3 110.95 291.109L120.78 291.109ZM107.673 278.002L97.3052 278.002L97.3052 287.832L107.673 287.832L107.673 278.002ZM76.5693 278.002L66.2013 278.002L66.2013 287.832L76.5693 287.832L76.5693 278.002ZM66.2013 278.002C64.3916 278.002 62.9245 276.535 62.9245 274.725L53.0942 274.725C53.0942 281.964 58.9624 287.832 66.2013 287.832L66.2013 278.002ZM62.9245 274.725L62.9245 266.513L53.0942 266.513L53.0942 274.725L62.9245 274.725ZM62.9245 250.089L62.9245 241.877L53.0942 241.877L53.0942 250.089L62.9245 250.089Z" fill="#222831" mask="url(#path-1-inside-1_10_140)"/>
<g style="mix-blend-mode:darken">
<mask id="path-3-inside-2_10_140" fill="white">
<path fill-rule="evenodd" clip-rule="evenodd" d="M277.13 258.758C272.331 253.959 264.55 253.959 259.752 258.758L232.837 285.673L206.71 259.546C201.911 254.747 194.131 254.747 189.332 259.546L171.954 276.923C167.155 281.722 167.155 289.502 171.954 294.301L198.081 320.428L172.863 345.647C168.064 350.445 168.064 358.226 172.863 363.024L190.241 380.402C195.039 385.201 202.82 385.201 207.618 380.402L232.837 355.184L258.843 381.19C263.642 385.989 271.422 385.989 276.221 381.19L293.599 363.812C298.397 359.014 298.397 351.233 293.599 346.435L267.592 320.428L294.507 293.513C299.306 288.714 299.306 280.934 294.507 276.135L277.13 258.758Z"/>
</mask>
<path fill-rule="evenodd" clip-rule="evenodd" d="M277.13 258.758C272.331 253.959 264.55 253.959 259.752 258.758L232.837 285.673L206.71 259.546C201.911 254.747 194.131 254.747 189.332 259.546L171.954 276.923C167.155 281.722 167.155 289.502 171.954 294.301L198.081 320.428L172.863 345.647C168.064 350.445 168.064 358.226 172.863 363.024L190.241 380.402C195.039 385.201 202.82 385.201 207.618 380.402L232.837 355.184L258.843 381.19C263.642 385.989 271.422 385.989 276.221 381.19L293.599 363.812C298.397 359.014 298.397 351.233 293.599 346.435L267.592 320.428L294.507 293.513C299.306 288.714 299.306 280.934 294.507 276.135L277.13 258.758Z" fill="#FAC23D"/>
<path d="M277.13 258.758L278.578 257.309L278.578 257.309L277.13 258.758ZM232.837 285.673L231.389 287.121L232.837 288.569L234.285 287.121L232.837 285.673ZM206.71 259.546L205.262 260.994L205.262 260.994L206.71 259.546ZM189.332 259.546L187.884 258.098L187.884 258.098L189.332 259.546ZM171.954 276.923L173.402 278.372L173.402 278.372L171.954 276.923ZM198.081 320.428L199.529 321.876L200.977 320.428L199.529 318.98L198.081 320.428ZM172.863 363.024L171.415 364.472L172.863 363.024ZM190.241 380.402L191.689 378.954L190.241 380.402ZM232.837 355.184L234.285 353.736L232.837 352.287L231.389 353.736L232.837 355.184ZM276.221 381.19L277.669 382.638L276.221 381.19ZM293.599 363.812L292.151 362.364L293.599 363.812ZM293.599 346.435L295.047 344.986L295.047 344.986L293.599 346.435ZM267.592 320.428L266.144 318.98L264.696 320.428L266.144 321.876L267.592 320.428ZM294.507 276.135L293.059 277.584L293.059 277.584L294.507 276.135ZM251.575 264.038C250.775 264.838 250.775 266.135 251.575 266.934C252.375 267.734 253.671 267.734 254.471 266.934L251.575 264.038ZM241.014 280.392C241.813 279.592 241.813 278.296 241.014 277.496C240.214 276.696 238.917 276.696 238.117 277.496L241.014 280.392ZM227.753 277.693C226.953 276.893 225.657 276.893 224.857 277.693C224.057 278.493 224.057 279.789 224.857 280.589L227.753 277.693ZM211.793 267.526C212.593 268.325 213.89 268.325 214.69 267.526C215.489 266.726 215.489 265.429 214.69 264.629L211.793 267.526ZM183.539 262.442C182.74 263.242 182.74 264.538 183.539 265.338C184.339 266.138 185.636 266.138 186.436 265.338L183.539 262.442ZM177.747 274.027C178.547 273.227 178.547 271.931 177.747 271.131C176.947 270.331 175.65 270.331 174.85 271.131L177.747 274.027ZM177.038 302.281C177.837 303.081 179.134 303.081 179.934 302.281C180.734 301.481 180.734 300.185 179.934 299.385L177.038 302.281ZM192.997 312.448C192.198 311.649 190.901 311.649 190.101 312.448C189.301 313.248 189.301 314.545 190.101 315.345L192.997 312.448ZM190.328 325.285C189.529 326.084 189.529 327.381 190.328 328.181C191.128 328.981 192.425 328.981 193.225 328.181L190.328 325.285ZM180.615 340.79C181.415 339.99 181.415 338.694 180.615 337.894C179.816 337.094 178.519 337.094 177.719 337.894L180.615 340.79ZM175.759 368.817C176.559 369.617 177.856 369.617 178.655 368.817C179.455 368.017 179.455 366.72 178.655 365.921L175.759 368.817ZM187.344 374.61C186.544 373.81 185.248 373.81 184.448 374.61C183.648 375.409 183.648 376.706 184.448 377.506L187.344 374.61ZM215.371 375.546C216.171 374.746 216.171 373.449 215.371 372.649C214.571 371.85 213.275 371.85 212.475 372.649L215.371 375.546ZM225.084 360.04C224.284 360.84 224.284 362.137 225.084 362.937C225.884 363.736 227.18 363.736 227.98 362.937L225.084 360.04ZM237.89 363.134C238.69 363.933 239.987 363.933 240.786 363.134C241.586 362.334 241.586 361.037 240.786 360.237L237.89 363.134ZM253.79 373.24C252.99 372.441 251.693 372.441 250.893 373.24C250.094 374.04 250.094 375.337 250.893 376.137L253.79 373.24ZM282.013 378.294C282.813 377.494 282.813 376.197 282.013 375.398C281.214 374.598 279.917 374.598 279.117 375.398L282.013 378.294ZM287.806 366.709C287.006 367.509 287.006 368.805 287.806 369.605C288.606 370.405 289.903 370.405 290.702 369.605L287.806 366.709ZM288.545 338.485C287.745 337.685 286.449 337.685 285.649 338.485C284.849 339.285 284.849 340.581 285.649 341.381L288.545 338.485ZM272.646 328.378C273.446 329.178 274.742 329.178 275.542 328.378C276.342 327.578 276.342 326.281 275.542 325.482L272.646 328.378ZM275.769 315.148C276.569 314.348 276.569 313.051 275.769 312.251C274.969 311.452 273.673 311.452 272.873 312.251L275.769 315.148ZM286.33 298.794C285.531 299.594 285.531 300.89 286.33 301.69C287.13 302.49 288.427 302.49 289.227 301.69L286.33 298.794ZM291.611 270.343C290.811 269.543 289.515 269.543 288.715 270.343C287.915 271.143 287.915 272.439 288.715 273.239L291.611 270.343ZM280.026 264.55C280.826 265.35 282.122 265.35 282.922 264.55C283.722 263.75 283.722 262.454 282.922 261.654L280.026 264.55ZM258.304 257.309L251.575 264.038L254.471 266.934L261.2 260.206L258.304 257.309ZM238.117 277.496L231.389 284.224L234.285 287.121L241.014 280.392L238.117 277.496ZM234.285 284.224L227.753 277.693L224.857 280.589L231.389 287.121L234.285 284.224ZM214.69 264.629L208.158 258.098L205.262 260.994L211.793 267.526L214.69 264.629ZM208.158 258.098C202.559 252.499 193.482 252.499 187.884 258.098L190.78 260.994C194.779 256.995 201.263 256.995 205.262 260.994L208.158 258.098ZM187.884 258.098L183.539 262.442L186.436 265.338L190.78 260.994L187.884 258.098ZM174.85 271.131L170.506 275.475L173.402 278.372L177.747 274.027L174.85 271.131ZM170.506 275.475C164.907 281.074 164.907 290.151 170.506 295.749L173.402 292.853C169.403 288.854 169.403 282.371 173.402 278.372L170.506 275.475ZM170.506 295.749L177.038 302.281L179.934 299.385L173.402 292.853L170.506 295.749ZM190.101 315.345L196.633 321.876L199.529 318.98L192.997 312.448L190.101 315.345ZM196.633 318.98L190.328 325.285L193.225 328.181L199.529 321.876L196.633 318.98ZM177.719 337.894L171.415 344.198L174.311 347.095L180.615 340.79L177.719 337.894ZM171.415 344.198C165.816 349.797 165.816 358.874 171.415 364.472L174.311 361.576C170.312 357.577 170.312 351.094 174.311 347.095L171.415 344.198ZM171.415 364.472L175.759 368.817L178.655 365.921L174.311 361.576L171.415 364.472ZM184.448 377.506L188.792 381.85L191.689 378.954L187.344 374.61L184.448 377.506ZM188.792 381.85C194.391 387.449 203.468 387.449 209.066 381.85L206.17 378.954C202.171 382.953 195.688 382.953 191.689 378.954L188.792 381.85ZM209.066 381.85L215.371 375.546L212.475 372.649L206.17 378.954L209.066 381.85ZM227.98 362.937L234.285 356.632L231.389 353.736L225.084 360.04L227.98 362.937ZM231.389 356.632L237.89 363.134L240.786 360.237L234.285 353.736L231.389 356.632ZM250.893 376.137L257.395 382.638L260.291 379.742L253.79 373.24L250.893 376.137ZM257.395 382.638C262.993 388.237 272.071 388.237 277.669 382.638L274.773 379.742C270.774 383.741 264.29 383.741 260.291 379.742L257.395 382.638ZM277.669 382.638L282.013 378.294L279.117 375.398L274.773 379.742L277.669 382.638ZM290.702 369.605L295.047 365.261L292.151 362.364L287.806 366.709L290.702 369.605ZM295.047 365.261C300.645 359.662 300.645 350.585 295.047 344.986L292.151 347.883C296.149 351.882 296.149 358.365 292.151 362.364L295.047 365.261ZM295.047 344.986L288.545 338.485L285.649 341.381L292.151 347.883L295.047 344.986ZM275.542 325.482L269.04 318.98L266.144 321.876L272.646 328.378L275.542 325.482ZM269.04 321.876L275.769 315.148L272.873 312.251L266.144 318.98L269.04 321.876ZM289.227 301.69L295.955 294.961L293.059 292.065L286.33 298.794L289.227 301.69ZM295.955 294.961C301.554 289.363 301.554 280.286 295.955 274.687L293.059 277.584C297.058 281.582 297.058 288.066 293.059 292.065L295.955 294.961ZM295.955 274.687L291.611 270.343L288.715 273.239L293.059 277.584L295.955 274.687ZM282.922 261.654L278.578 257.309L275.681 260.206L280.026 264.55L282.922 261.654ZM278.578 257.309C272.979 251.711 263.902 251.711 258.304 257.309L261.2 260.206C265.199 256.207 271.682 256.207 275.681 260.206L278.578 257.309ZM277.13 258.758L280.026 255.861L280.026 255.861L277.13 258.758ZM232.837 285.673L229.94 288.569L232.837 291.465L235.733 288.569L232.837 285.673ZM206.71 259.546L203.813 262.442L203.813 262.442L206.71 259.546ZM189.332 259.546L186.436 256.649L186.436 256.649L189.332 259.546ZM171.954 276.923L174.85 279.82L174.85 279.82L171.954 276.923ZM198.081 320.428L200.977 323.325L203.874 320.428L200.977 317.532L198.081 320.428ZM172.863 363.024L169.966 365.921L172.863 363.024ZM190.241 380.402L193.137 377.506L190.241 380.402ZM232.837 355.184L235.733 352.287L232.837 349.391L229.94 352.287L232.837 355.184ZM276.221 381.19L279.117 384.087L276.221 381.19ZM293.599 363.812L290.702 360.916L293.599 363.812ZM293.599 346.435L296.495 343.538L296.495 343.538L293.599 346.435ZM267.592 320.428L264.696 317.532L261.8 320.428L264.696 323.325L267.592 320.428ZM294.507 276.135L291.611 279.032L291.611 279.032L294.507 276.135ZM250.127 262.59C248.527 264.19 248.527 266.783 250.127 268.383C251.726 269.982 254.32 269.982 255.919 268.383L250.127 262.59ZM242.462 281.84C244.061 280.241 244.061 277.647 242.462 276.048C240.862 274.448 238.269 274.448 236.669 276.048L242.462 281.84ZM229.201 276.245C227.602 274.645 225.008 274.645 223.409 276.245C221.809 277.844 221.809 280.438 223.409 282.037L229.201 276.245ZM210.345 268.974C211.945 270.573 214.538 270.573 216.138 268.974C217.737 267.374 217.737 264.781 216.138 263.181L210.345 268.974ZM182.091 260.994C180.492 262.593 180.492 265.187 182.091 266.786C183.691 268.386 186.284 268.386 187.884 266.786L182.091 260.994ZM179.195 275.475C180.794 273.876 180.794 271.282 179.195 269.683C177.595 268.083 175.002 268.083 173.402 269.683L179.195 275.475ZM175.59 303.729C177.189 305.329 179.783 305.329 181.382 303.729C182.982 302.13 182.982 299.536 181.382 297.937L175.59 303.729ZM194.446 311C192.846 309.401 190.253 309.401 188.653 311C187.053 312.6 187.053 315.193 188.653 316.793L194.446 311ZM188.88 323.836C187.281 325.436 187.281 328.03 188.88 329.629C190.48 331.229 193.073 331.229 194.673 329.629L188.88 323.836ZM182.064 342.238C183.663 340.639 183.663 338.045 182.064 336.446C180.464 334.846 177.871 334.846 176.271 336.446L182.064 342.238ZM174.311 370.265C175.91 371.865 178.504 371.865 180.103 370.265C181.703 368.666 181.703 366.072 180.103 364.472L174.311 370.265ZM188.792 373.161C187.193 371.562 184.599 371.562 183 373.161C181.4 374.761 181.4 377.354 183 378.954L188.792 373.161ZM216.819 376.994C218.419 375.394 218.419 372.801 216.819 371.201C215.22 369.602 212.626 369.602 211.027 371.201L216.819 376.994ZM223.636 358.592C222.036 360.192 222.036 362.785 223.636 364.385C225.235 365.984 227.829 365.984 229.428 364.385L223.636 358.592ZM236.442 364.582C238.042 366.181 240.635 366.181 242.235 364.582C243.834 362.982 243.834 360.389 242.235 358.789L236.442 364.582ZM255.238 371.792C253.638 370.193 251.045 370.193 249.445 371.792C247.846 373.392 247.846 375.985 249.445 377.585L255.238 371.792ZM283.462 379.742C285.061 378.142 285.061 375.549 283.462 373.949C281.862 372.35 279.269 372.35 277.669 373.949L283.462 379.742ZM286.358 365.261C284.758 366.86 284.758 369.454 286.358 371.053C287.958 372.653 290.551 372.653 292.151 371.053L286.358 365.261ZM289.993 337.037C288.394 335.437 285.8 335.437 284.201 337.037C282.601 338.636 282.601 341.23 284.201 342.829L289.993 337.037ZM271.198 329.826C272.797 331.426 275.391 331.426 276.99 329.826C278.59 328.227 278.59 325.633 276.99 324.034L271.198 329.826ZM277.217 316.596C278.817 314.996 278.817 312.403 277.217 310.803C275.618 309.204 273.024 309.204 271.425 310.803L277.217 316.596ZM284.882 297.346C283.283 298.945 283.283 301.539 284.882 303.138C286.482 304.738 289.075 304.738 290.675 303.138L284.882 297.346ZM293.059 268.895C291.46 267.295 288.866 267.295 287.267 268.895C285.667 270.494 285.667 273.088 287.267 274.687L293.059 268.895ZM278.578 265.998C280.177 267.598 282.771 267.598 284.37 265.998C285.97 264.399 285.97 261.805 284.37 260.206L278.578 265.998ZM256.855 255.861L250.127 262.59L255.919 268.383L262.648 261.654L256.855 255.861ZM236.669 276.048L229.94 282.776L235.733 288.569L242.462 281.84L236.669 276.048ZM235.733 282.776L229.201 276.245L223.409 282.037L229.94 288.569L235.733 282.776ZM216.138 263.181L209.606 256.649L203.813 262.442L210.345 268.974L216.138 263.181ZM209.606 256.649C203.208 250.251 192.834 250.251 186.436 256.649L192.228 262.442C195.427 259.243 200.614 259.243 203.813 262.442L209.606 256.649ZM186.436 256.649L182.091 260.994L187.884 266.786L192.228 262.442L186.436 256.649ZM173.402 269.683L169.058 274.027L174.85 279.82L179.195 275.475L173.402 269.683ZM169.058 274.027C162.659 280.425 162.659 290.799 169.058 297.198L174.85 291.405C171.651 288.206 171.651 283.019 174.85 279.82L169.058 274.027ZM169.058 297.198L175.59 303.729L181.382 297.937L174.85 291.405L169.058 297.198ZM188.653 316.793L195.185 323.325L200.977 317.532L194.446 311L188.653 316.793ZM195.185 317.532L188.88 323.836L194.673 329.629L200.977 323.325L195.185 317.532ZM176.271 336.446L169.966 342.75L175.759 348.543L182.064 342.238L176.271 336.446ZM169.966 342.75C163.568 349.149 163.568 359.522 169.966 365.921L175.759 360.128C172.56 356.929 172.56 351.742 175.759 348.543L169.966 342.75ZM169.966 365.921L174.311 370.265L180.103 364.472L175.759 360.128L169.966 365.921ZM183 378.954L187.344 383.298L193.137 377.506L188.792 373.161L183 378.954ZM187.344 383.298C193.743 389.697 204.116 389.697 210.515 383.298L204.722 377.506C201.523 380.705 196.336 380.705 193.137 377.506L187.344 383.298ZM210.515 383.298L216.819 376.994L211.027 371.201L204.722 377.506L210.515 383.298ZM229.428 364.385L235.733 358.08L229.94 352.287L223.636 358.592L229.428 364.385ZM229.94 358.08L236.442 364.582L242.235 358.789L235.733 352.287L229.94 358.08ZM249.445 377.585L255.947 384.087L261.739 378.294L255.238 371.792L249.445 377.585ZM255.947 384.087C262.345 390.485 272.719 390.485 279.117 384.087L273.325 378.294C270.125 381.493 264.939 381.493 261.739 378.294L255.947 384.087ZM279.117 384.087L283.462 379.742L277.669 373.949L273.325 378.294L279.117 384.087ZM292.151 371.053L296.495 366.709L290.702 360.916L286.358 365.261L292.151 371.053ZM296.495 366.709C302.893 360.31 302.893 349.937 296.495 343.538L290.702 349.331C293.902 352.53 293.902 357.717 290.702 360.916L296.495 366.709ZM296.495 343.538L289.993 337.037L284.201 342.829L290.702 349.331L296.495 343.538ZM276.99 324.034L270.489 317.532L264.696 323.325L271.198 329.826L276.99 324.034ZM270.489 323.325L277.217 316.596L271.425 310.803L264.696 317.532L270.489 323.325ZM290.675 303.138L297.404 296.409L291.611 290.617L284.882 297.346L290.675 303.138ZM297.404 296.409C303.802 290.011 303.802 279.637 297.404 273.239L291.611 279.032C294.81 282.231 294.81 287.418 291.611 290.617L297.404 296.409ZM297.404 273.239L293.059 268.895L287.267 274.687L291.611 279.032L297.404 273.239ZM284.37 260.206L280.026 255.861L274.233 261.654L278.578 265.998L284.37 260.206ZM280.026 255.861C273.627 249.463 263.254 249.463 256.855 255.861L262.648 261.654C265.847 258.455 271.034 258.455 274.233 261.654L280.026 255.861Z" fill="#222831" mask="url(#path-3-inside-2_10_140)"/>
</g>
<path fill-rule="evenodd" clip-rule="evenodd" d="M209.481 308.987L201.066 317.402L198.167 320.301L201.066 323.2L209.481 331.615C211.082 330.014 211.082 327.418 209.481 325.817L203.966 320.301L209.481 314.786C211.082 313.185 211.082 310.589 209.481 308.987Z" fill="#222831"/>
<path fill-rule="evenodd" clip-rule="evenodd" d="M221.502 296.967L229.916 288.552L232.816 285.653L235.715 288.552L244.129 296.967C242.528 298.568 239.932 298.568 238.331 296.967L232.816 291.451L227.3 296.967C225.699 298.568 223.103 298.568 221.502 296.967Z" fill="#222831"/>
<path fill-rule="evenodd" clip-rule="evenodd" d="M256.15 331.615L264.565 323.2L267.464 320.301L264.565 317.402L256.15 308.987C254.549 310.589 254.549 313.185 256.15 314.786L261.666 320.301L256.15 325.817C254.549 327.418 254.549 330.014 256.15 331.615Z" fill="#222831"/>
<path fill-rule="evenodd" clip-rule="evenodd" d="M244.129 343.636L235.715 352.05L232.816 354.949L229.916 352.05L221.502 343.636C223.103 342.034 225.699 342.034 227.3 343.636L232.816 349.151L238.331 343.636C239.932 342.034 242.528 342.034 244.129 343.636Z" fill="#222831"/>
<path d="M46.1143 212.432C46.1143 213.563 45.1973 214.48 44.0663 214.48H43.1248C41.9937 214.48 41.0768 213.563 41.0768 212.432V206.453C41.0768 205.322 40.1599 204.405 39.0288 204.405H15.0133C13.8822 204.405 12.9653 203.488 12.9653 202.357V201.44C12.9653 200.309 13.8822 199.392 15.0133 199.392H39.0288C40.1599 199.392 41.0768 198.475 41.0768 197.344V186.328C41.0768 185.197 40.1599 184.28 39.0288 184.28H23.0156C21.2955 184.28 19.6737 184.615 18.1502 185.287C16.6266 185.942 15.2997 186.843 14.1693 187.99C13.039 189.121 12.138 190.447 11.4663 191.971C10.811 193.495 10.4834 195.125 10.4834 196.861V212.432C10.4834 213.563 9.56647 214.48 8.4354 214.48H7.49392C6.36284 214.48 5.44592 213.563 5.44592 212.432V196.861C5.44592 195.239 5.6507 193.683 6.06025 192.192C6.48618 190.685 7.07593 189.284 7.8295 187.99C8.59946 186.68 9.51685 185.492 10.5817 184.427C11.6629 183.346 12.8506 182.42 14.1448 181.65C15.4553 180.88 16.856 180.291 18.3468 179.881C19.8375 179.455 21.3938 179.242 23.0156 179.242H44.0663C45.1973 179.242 46.1143 180.159 46.1143 181.29V212.432Z" fill="#222831"/>
<path d="M99.1462 210.96C100.469 212.24 99.5631 214.48 97.7222 214.48H96.7977C96.2714 214.48 95.7653 214.277 95.3844 213.914L86.0048 204.971C85.6239 204.608 85.1178 204.405 84.5915 204.405H72.0276C70.8965 204.405 69.9796 203.488 69.9796 202.357V201.489C69.9796 200.358 70.8965 199.441 72.0276 199.441H90.2032C91.2516 199.441 92.2345 199.245 93.1519 198.851C94.0693 198.442 94.8638 197.893 95.5355 197.205C96.2235 196.517 96.7641 195.714 97.1573 194.797C97.5505 193.863 97.7471 192.872 97.7471 191.824C97.7471 190.775 97.5505 189.792 97.1573 188.875C96.7641 187.957 96.2235 187.163 95.5355 186.491C94.8638 185.803 94.0693 185.263 93.1519 184.869C92.2345 184.476 91.2516 184.28 90.2032 184.28H69.2017C68.0706 184.28 67.1537 185.197 67.1537 186.328V212.432C67.1537 213.563 66.2367 214.48 65.1057 214.48H64.1642C63.0331 214.48 62.1162 213.563 62.1162 212.432V181.29C62.1162 180.159 63.0331 179.242 64.1642 179.242H90.2032C91.9396 179.242 93.5696 179.578 95.0932 180.25C96.6167 180.905 97.9436 181.806 99.074 182.953C100.221 184.083 101.122 185.41 101.777 186.934C102.449 188.457 102.785 190.087 102.785 191.824C102.785 193.396 102.514 194.887 101.974 196.296C101.433 197.688 100.688 198.942 99.7375 200.056C98.7873 201.153 97.6652 202.071 96.371 202.808C96.2691 202.865 96.1665 202.921 96.0633 202.976C94.5746 203.761 93.9344 205.918 95.1439 207.088L99.1462 210.96Z" fill="#222831"/>
<path d="M121.834 212.432C121.834 213.563 120.917 214.48 119.786 214.48H118.844C117.713 214.48 116.796 213.563 116.796 212.432V181.29C116.796 180.159 117.713 179.242 118.844 179.242H119.786C120.917 179.242 121.834 180.159 121.834 181.29V212.432Z" fill="#222831"/>
<path d="M156.978 212.432C156.978 213.563 156.061 214.48 154.93 214.48H153.988C152.857 214.48 151.94 213.563 151.94 212.432V186.328C151.94 185.197 151.023 184.28 149.892 184.28H136.173C135.042 184.28 134.125 183.363 134.125 182.232V181.29C134.125 180.159 135.042 179.242 136.173 179.242H172.745C173.876 179.242 174.793 180.159 174.793 181.29V182.232C174.793 183.363 173.876 184.28 172.745 184.28H159.026C157.895 184.28 156.978 185.197 156.978 186.328V212.432Z" fill="#222831"/>
<path d="M224.288 212.432C224.288 213.563 223.371 214.48 222.24 214.48H221.299C220.168 214.48 219.251 213.563 219.251 212.432V201.44C219.251 200.309 218.334 199.392 217.203 199.392H196.677C195.546 199.392 194.629 198.475 194.629 197.344V196.403C194.629 195.272 195.546 194.355 196.677 194.355H217.203C218.334 194.355 219.251 193.438 219.251 192.307V181.29C219.251 180.159 220.168 179.242 221.299 179.242H222.24C223.371 179.242 224.288 180.159 224.288 181.29V212.432ZM192.122 212.432C192.122 213.563 191.205 214.48 190.074 214.48H189.133C188.002 214.48 187.085 213.563 187.085 212.432V181.29C187.085 180.159 188.002 179.242 189.133 179.242H190.074C191.205 179.242 192.122 180.159 192.122 181.29V212.432Z" fill="#222831"/>
<path d="M265.65 212.432C265.65 213.563 264.733 214.48 263.602 214.48H262.66C261.529 214.48 260.612 213.563 260.612 212.432V196.861C260.612 195.125 260.284 193.495 259.629 191.971C258.974 190.447 258.073 189.121 256.926 187.99C255.796 186.843 254.461 185.942 252.921 185.287C251.397 184.615 249.767 184.28 248.031 184.28H247.376C246.245 184.28 245.328 185.197 245.328 186.328V212.432C245.328 213.563 244.411 214.48 243.28 214.48H242.338C241.207 214.48 240.29 213.563 240.29 212.432V181.29C240.29 180.159 241.207 179.242 242.338 179.242H248.031C249.636 179.242 251.176 179.455 252.65 179.881C254.141 180.291 255.534 180.872 256.828 181.626C258.122 182.379 259.302 183.28 260.366 184.329C260.63 184.588 260.885 184.855 261.132 185.129C262.159 186.268 264.115 186.26 265.14 185.119C265.383 184.849 265.635 184.585 265.895 184.329C266.96 183.28 268.14 182.379 269.434 181.626C270.728 180.872 272.112 180.291 273.587 179.881C275.077 179.455 276.625 179.242 278.231 179.242H283.948C285.079 179.242 285.996 180.159 285.996 181.29V212.432C285.996 213.563 285.079 214.48 283.948 214.48H283.007C281.875 214.48 280.959 213.563 280.959 212.432V186.328C280.959 185.197 280.042 184.28 278.911 184.28H278.231C276.494 184.28 274.864 184.615 273.341 185.287C271.817 185.942 270.482 186.843 269.335 187.99C268.205 189.121 267.304 190.447 266.632 191.971C265.977 193.495 265.65 195.125 265.65 196.861V212.432Z" fill="#222831"/>
<path d="M338.44 212.432C338.44 213.563 337.523 214.48 336.392 214.48H304.046C302.915 214.48 301.998 213.563 301.998 212.432V181.29C301.998 180.159 302.915 179.242 304.046 179.242H336.392C337.523 179.242 338.44 180.159 338.44 181.29V182.232C338.44 183.363 337.523 184.28 336.392 184.28H309.083C307.952 184.28 307.035 185.197 307.035 186.328V207.394C307.035 208.526 307.952 209.442 309.083 209.442H336.392C337.523 209.442 338.44 210.359 338.44 211.49V212.432ZM334.164 197.344C334.164 198.475 333.247 199.392 332.116 199.392H311.59C310.459 199.392 309.542 198.475 309.542 197.344V196.403C309.542 195.272 310.459 194.355 311.59 194.355H332.116C333.247 194.355 334.164 195.272 334.164 196.403V197.344Z" fill="#222831"/>
<path d="M371.372 212.432C371.372 213.563 370.456 214.48 369.324 214.48H368.383C367.252 214.48 366.335 213.563 366.335 212.432V186.328C366.335 185.197 365.418 184.28 364.287 184.28H350.568C349.436 184.28 348.52 183.363 348.52 182.232V181.29C348.52 180.159 349.436 179.242 350.568 179.242L387.14 179.242C388.271 179.242 389.188 180.159 389.188 181.29V182.232C389.188 183.363 388.271 184.28 387.14 184.28H373.42C372.289 184.28 371.372 185.197 371.372 186.328V212.432Z" fill="#222831"/>
<path d="M406.517 212.432C406.517 213.563 405.6 214.48 404.469 214.48H403.527C402.396 214.48 401.479 213.563 401.479 212.432V181.29C401.479 180.159 402.396 179.242 403.527 179.242H404.469C405.6 179.242 406.517 180.159 406.517 181.29V212.432Z" fill="#222831"/>
<path d="M459.427 212.432C459.427 213.563 458.51 214.48 457.379 214.48H436.746C434.306 214.48 432.086 214.021 430.087 213.104C428.089 212.186 426.377 210.933 424.951 209.344C423.543 207.755 422.453 205.888 421.683 203.741C420.913 201.595 420.528 199.302 420.528 196.861C420.528 194.437 420.913 192.159 421.683 190.03C422.453 187.884 423.543 186.016 424.951 184.427C426.377 182.822 428.089 181.56 430.087 180.643C432.086 179.709 434.306 179.242 436.746 179.242H457.379C458.51 179.242 459.427 180.159 459.427 181.29V182.232C459.427 183.363 458.51 184.28 457.379 184.28H436.746C435.01 184.28 433.445 184.615 432.053 185.287C430.677 185.942 429.506 186.843 428.539 187.99C427.589 189.121 426.852 190.447 426.328 191.971C425.82 193.495 425.566 195.125 425.566 196.861C425.566 198.598 425.82 200.236 426.328 201.776C426.852 203.299 427.589 204.634 428.539 205.781C429.506 206.911 430.677 207.804 432.053 208.46C433.445 209.115 435.01 209.442 436.746 209.442H457.379C458.51 209.442 459.427 210.359 459.427 211.49V212.432Z" fill="#222831"/>
<path d="M46.1143 212.432C46.1143 213.563 45.1973 214.48 44.0663 214.48H43.1248C41.9937 214.48 41.0768 213.563 41.0768 212.432V206.453C41.0768 205.322 40.1599 204.405 39.0288 204.405H15.0133C13.8822 204.405 12.9653 203.488 12.9653 202.357V201.44C12.9653 200.309 13.8822 199.392 15.0133 199.392H39.0288C40.1599 199.392 41.0768 198.475 41.0768 197.344V186.328C41.0768 185.197 40.1599 184.28 39.0288 184.28H23.0156C21.2955 184.28 19.6737 184.615 18.1502 185.287C16.6266 185.942 15.2997 186.843 14.1693 187.99C13.039 189.121 12.138 190.447 11.4663 191.971C10.811 193.495 10.4834 195.125 10.4834 196.861V212.432C10.4834 213.563 9.56647 214.48 8.4354 214.48H7.49392C6.36284 214.48 5.44592 213.563 5.44592 212.432V196.861C5.44592 195.239 5.6507 193.683 6.06025 192.192C6.48618 190.685 7.07593 189.284 7.8295 187.99C8.59946 186.68 9.51685 185.492 10.5817 184.427C11.6629 183.346 12.8506 182.42 14.1448 181.65C15.4553 180.88 16.856 180.291 18.3468 179.881C19.8375 179.455 21.3938 179.242 23.0156 179.242H44.0663C45.1973 179.242 46.1143 180.159 46.1143 181.29V212.432Z" stroke="#222831" stroke-width="3.27679"/>
<path d="M99.1462 210.96C100.469 212.24 99.5631 214.48 97.7222 214.48H96.7977C96.2714 214.48 95.7653 214.277 95.3844 213.914L86.0048 204.971C85.6239 204.608 85.1178 204.405 84.5915 204.405H72.0276C70.8965 204.405 69.9796 203.488 69.9796 202.357V201.489C69.9796 200.358 70.8965 199.441 72.0276 199.441H90.2032C91.2516 199.441 92.2345 199.245 93.1519 198.851C94.0693 198.442 94.8638 197.893 95.5355 197.205C96.2235 196.517 96.7641 195.714 97.1573 194.797C97.5505 193.863 97.7471 192.872 97.7471 191.824C97.7471 190.775 97.5505 189.792 97.1573 188.875C96.7641 187.957 96.2235 187.163 95.5355 186.491C94.8638 185.803 94.0693 185.263 93.1519 184.869C92.2345 184.476 91.2516 184.28 90.2032 184.28H69.2017C68.0706 184.28 67.1537 185.197 67.1537 186.328V212.432C67.1537 213.563 66.2367 214.48 65.1057 214.48H64.1642C63.0331 214.48 62.1162 213.563 62.1162 212.432V181.29C62.1162 180.159 63.0331 179.242 64.1642 179.242H90.2032C91.9396 179.242 93.5696 179.578 95.0932 180.25C96.6167 180.905 97.9436 181.806 99.074 182.953C100.221 184.083 101.122 185.41 101.777 186.934C102.449 188.457 102.785 190.087 102.785 191.824C102.785 193.396 102.514 194.887 101.974 196.296C101.433 197.688 100.688 198.942 99.7375 200.056C98.7873 201.153 97.6652 202.071 96.371 202.808C96.2691 202.865 96.1665 202.921 96.0633 202.976C94.5746 203.761 93.9344 205.918 95.1439 207.088L99.1462 210.96Z" stroke="#222831" stroke-width="3.27679"/>
<path d="M121.834 212.432C121.834 213.563 120.917 214.48 119.786 214.48H118.844C117.713 214.48 116.796 213.563 116.796 212.432V181.29C116.796 180.159 117.713 179.242 118.844 179.242H119.786C120.917 179.242 121.834 180.159 121.834 181.29V212.432Z" stroke="#222831" stroke-width="3.27679"/>
<path d="M156.978 212.432C156.978 213.563 156.061 214.48 154.93 214.48H153.988C152.857 214.48 151.94 213.563 151.94 212.432V186.328C151.94 185.197 151.023 184.28 149.892 184.28H136.173C135.042 184.28 134.125 183.363 134.125 182.232V181.29C134.125 180.159 135.042 179.242 136.173 179.242H172.745C173.876 179.242 174.793 180.159 174.793 181.29V182.232C174.793 183.363 173.876 184.28 172.745 184.28H159.026C157.895 184.28 156.978 185.197 156.978 186.328V212.432Z" stroke="#222831" stroke-width="3.27679"/>
<path d="M224.288 212.432C224.288 213.563 223.371 214.48 222.24 214.48H221.299C220.168 214.48 219.251 213.563 219.251 212.432V201.44C219.251 200.309 218.334 199.392 217.203 199.392H196.677C195.546 199.392 194.629 198.475 194.629 197.344V196.403C194.629 195.272 195.546 194.355 196.677 194.355H217.203C218.334 194.355 219.251 193.438 219.251 192.307V181.29C219.251 180.159 220.168 179.242 221.299 179.242H222.24C223.371 179.242 224.288 180.159 224.288 181.29V212.432ZM192.122 212.432C192.122 213.563 191.205 214.48 190.074 214.48H189.133C188.002 214.48 187.085 213.563 187.085 212.432V181.29C187.085 180.159 188.002 179.242 189.133 179.242H190.074C191.205 179.242 192.122 180.159 192.122 181.29V212.432Z" stroke="#222831" stroke-width="3.27679"/>
<path d="M265.65 212.432C265.65 213.563 264.733 214.48 263.602 214.48H262.66C261.529 214.48 260.612 213.563 260.612 212.432V196.861C260.612 195.125 260.284 193.495 259.629 191.971C258.974 190.447 258.073 189.121 256.926 187.99C255.796 186.843 254.461 185.942 252.921 185.287C251.397 184.615 249.767 184.28 248.031 184.28H247.376C246.245 184.28 245.328 185.197 245.328 186.328V212.432C245.328 213.563 244.411 214.48 243.28 214.48H242.338C241.207 214.48 240.29 213.563 240.29 212.432V181.29C240.29 180.159 241.207 179.242 242.338 179.242H248.031C249.636 179.242 251.176 179.455 252.65 179.881C254.141 180.291 255.534 180.872 256.828 181.626C258.122 182.379 259.302 183.28 260.366 184.329C260.63 184.588 260.885 184.855 261.132 185.129C262.159 186.268 264.115 186.26 265.14 185.119C265.383 184.849 265.635 184.585 265.895 184.329C266.96 183.28 268.14 182.379 269.434 181.626C270.728 180.872 272.112 180.291 273.587 179.881C275.077 179.455 276.625 179.242 278.231 179.242H283.948C285.079 179.242 285.996 180.159 285.996 181.29V212.432C285.996 213.563 285.079 214.48 283.948 214.48H283.007C281.875 214.48 280.959 213.563 280.959 212.432V186.328C280.959 185.197 280.042 184.28 278.911 184.28H278.231C276.494 184.28 274.864 184.615 273.341 185.287C271.817 185.942 270.482 186.843 269.335 187.99C268.205 189.121 267.304 190.447 266.632 191.971C265.977 193.495 265.65 195.125 265.65 196.861V212.432Z" stroke="#222831" stroke-width="3.27679"/>
<path d="M338.44 212.432C338.44 213.563 337.523 214.48 336.392 214.48H304.046C302.915 214.48 301.998 213.563 301.998 212.432V181.29C301.998 180.159 302.915 179.242 304.046 179.242H336.392C337.523 179.242 338.44 180.159 338.44 181.29V182.232C338.44 183.363 337.523 184.28 336.392 184.28H309.083C307.952 184.28 307.035 185.197 307.035 186.328V207.394C307.035 208.526 307.952 209.442 309.083 209.442H336.392C337.523 209.442 338.44 210.359 338.44 211.49V212.432ZM334.164 197.344C334.164 198.475 333.247 199.392 332.116 199.392H311.59C310.459 199.392 309.542 198.475 309.542 197.344V196.403C309.542 195.272 310.459 194.355 311.59 194.355H332.116C333.247 194.355 334.164 195.272 334.164 196.403V197.344Z" stroke="#222831" stroke-width="3.27679"/>
<path d="M371.372 212.432C371.372 213.563 370.456 214.48 369.324 214.48H368.383C367.252 214.48 366.335 213.563 366.335 212.432V186.328C366.335 185.197 365.418 184.28 364.287 184.28H350.568C349.436 184.28 348.52 183.363 348.52 182.232V181.29C348.52 180.159 349.436 179.242 350.568 179.242L387.14 179.242C388.271 179.242 389.188 180.159 389.188 181.29V182.232C389.188 183.363 388.271 184.28 387.14 184.28H373.42C372.289 184.28 371.372 185.197 371.372 186.328V212.432Z" stroke="#222831" stroke-width="3.27679"/>
<path d="M406.517 212.432C406.517 213.563 405.6 214.48 404.469 214.48H403.527C402.396 214.48 401.479 213.563 401.479 212.432V181.29C401.479 180.159 402.396 179.242 403.527 179.242H404.469C405.6 179.242 406.517 180.159 406.517 181.29V212.432Z" stroke="#222831" stroke-width="3.27679"/>
<path d="M459.427 212.432C459.427 213.563 458.51 214.48 457.379 214.48H436.746C434.306 214.48 432.086 214.021 430.087 213.104C428.089 212.186 426.377 210.933 424.951 209.344C423.543 207.755 422.453 205.888 421.683 203.741C420.913 201.595 420.528 199.302 420.528 196.861C420.528 194.437 420.913 192.159 421.683 190.03C422.453 187.884 423.543 186.016 424.951 184.427C426.377 182.822 428.089 181.56 430.087 180.643C432.086 179.709 434.306 179.242 436.746 179.242H457.379C458.51 179.242 459.427 180.159 459.427 181.29V182.232C459.427 183.363 458.51 184.28 457.379 184.28H436.746C435.01 184.28 433.445 184.615 432.053 185.287C430.677 185.942 429.506 186.843 428.539 187.99C427.589 189.121 426.852 190.447 426.328 191.971C425.82 193.495 425.566 195.125 425.566 196.861C425.566 198.598 425.82 200.236 426.328 201.776C426.852 203.299 427.589 204.634 428.539 205.781C429.506 206.911 430.677 207.804 432.053 208.46C433.445 209.115 435.01 209.442 436.746 209.442H457.379C458.51 209.442 459.427 210.359 459.427 211.49V212.432Z" stroke="#222831" stroke-width="3.27679"/>
</svg>
