<svg width="27" height="29" viewBox="0 0 27 29" fill="none" xmlns="http://www.w3.org/2000/svg">
<path d="M0 21C0 19.8954 0.895431 19 2 19H5C6.10457 19 7 19.8954 7 21V29H0V21Z" fill="#222831"/>
<path d="M10 11C10 9.89543 10.8954 9 12 9H15C16.1046 9 17 9.89543 17 11V29H10V11Z" fill="#222831"/>
<path d="M20 8.25V4.75C20.2761 4.75 20.5 4.52614 20.5 4.25V2C20.5 1.79569 20.5406 1.60212 20.6136 1.42595C20.7113 1.19049 20.6156 0.923113 20.3997 0.800178C20.5136 0.648532 20.6485 0.513599 20.8002 0.39972C20.9231 0.615643 21.1905 0.711266 21.426 0.613624C21.6021 0.54057 21.7957 0.5 22 0.5H22.75C23.0261 0.5 23.25 0.276142 23.25 0H23.75C23.75 0.276142 23.9739 0.5 24.25 0.5H25C25.2043 0.5 25.3979 0.54057 25.574 0.613624C25.8095 0.711266 26.0769 0.615643 26.1998 0.39972C26.3515 0.513599 26.4864 0.648532 26.6003 0.800178C26.3844 0.923113 26.2887 1.19049 26.3864 1.42595C26.4594 1.60212 26.5 1.79569 26.5 2V4.25C26.5 4.52614 26.7239 4.75 27 4.75V8.25C26.7239 8.25 26.5 8.47386 26.5 8.75V13.25C26.5 13.5261 26.7239 13.75 27 13.75V17.25C26.7239 17.25 26.5 17.4739 26.5 17.75V22.25C26.5 22.5261 26.7239 22.75 27 22.75V26.25C26.7239 26.25 26.5 26.4739 26.5 26.75V28.5H25.25C24.9739 28.5 24.75 28.7239 24.75 29H22.25C22.25 28.7239 22.0261 28.5 21.75 28.5H20.5V26.75C20.5 26.4739 20.2761 26.25 20 26.25V22.75C20.2761 22.75 20.5 22.5261 20.5 22.25V17.75C20.5 17.4739 20.2761 17.25 20 17.25V13.75C20.2761 13.75 20.5 13.5261 20.5 13.25V8.75C20.5 8.47386 20.2761 8.25 20 8.25Z" fill="#222831" fill-opacity="0.1" stroke="#222831" stroke-linecap="round" stroke-dasharray="5 5"/>
</svg>
