<svg width="23" height="23" viewBox="0 0 23 23" fill="none" xmlns="http://www.w3.org/2000/svg">
<path d="M14.1151 11.0129L21.3607 3.76739C21.5677 3.5638 21.7323 3.32124 21.8451 3.0537C21.9578 2.78616 22.0165 2.49894 22.0177 2.20861C22.019 1.91827 21.9627 1.63057 21.8522 1.3621C21.7416 1.09363 21.579 0.849693 21.3738 0.644371C21.1685 0.439048 20.9246 0.2764 20.6561 0.165808C20.3877 0.0552164 20.1 -0.00113068 19.8097 1.71908e-05C19.5193 0.00116506 19.2321 0.0597853 18.9645 0.172496C18.697 0.285208 18.4544 0.449779 18.2507 0.656718L11.0052 7.90225L3.75966 0.657451C3.55541 0.453201 3.31293 0.291182 3.04607 0.180642C2.7792 0.0701031 2.49318 0.0132091 2.20433 0.0132091C1.91547 0.0132091 1.62945 0.0701031 1.36258 0.180642C1.09572 0.291182 0.853239 0.453201 0.648989 0.657451C0.236487 1.06995 0.00474675 1.62942 0.00474675 2.21279C0.00474675 2.79615 0.236487 3.35563 0.648989 3.76813L7.89452 11.0129L0.631394 18.2761C0.224524 18.6897 -0.00241136 19.2474 1.93266e-05 19.8276C0.00245001 20.4078 0.23405 20.9635 0.644371 21.3738C1.05469 21.784 1.61049 22.0154 2.1907 22.0177C2.77091 22.02 3.32852 21.793 3.74207 21.386L11.0045 14.1236L18.2493 21.3684C18.6789 21.798 19.2419 22.0128 19.8042 22.0128C20.3666 22.0128 20.9296 21.798 21.3592 21.3684C21.5635 21.1643 21.7257 20.9219 21.8362 20.6551C21.9468 20.3883 22.0038 20.1023 22.0038 19.8134C22.0038 19.5246 21.9468 19.2386 21.8362 18.9718C21.7257 18.705 21.5635 18.4626 21.3592 18.2585L14.1151 11.0129Z" fill="#FFFCF5"/>
</svg>
