<svg width="36" height="36" viewBox="0 0 36 36" fill="none" xmlns="http://www.w3.org/2000/svg">
<path d="M30.6342 11.6143C30.6342 12.1944 30.8646 12.7507 31.2748 13.1609C31.685 13.5711 32.2414 13.8016 32.8214 13.8016C33.4015 13.8016 33.9579 13.5711 34.3681 13.1609C34.7783 12.7507 35.0087 12.1944 35.0087 11.6143V2.18725C35.0087 1.60716 34.7783 1.05082 34.3681 0.640631C33.9579 0.230442 33.4015 0 32.8214 0H23.4163C22.8362 0 22.2798 0.230442 21.8696 0.640631C21.4595 1.05082 21.229 1.60716 21.229 2.18725C21.229 2.76735 21.4595 3.32368 21.8696 3.73387C22.2798 4.14406 22.8362 4.3745 23.4163 4.3745H27.5502L17.5107 14.414L4.73714 1.66231C4.31872 1.30398 3.78049 1.11674 3.23001 1.138C2.67953 1.15926 2.15735 1.38747 1.76781 1.777C1.37828 2.16654 1.15007 2.68872 1.12881 3.2392C1.10755 3.78968 1.29479 4.32791 1.65312 4.74633L14.4048 17.498L0.646985 31.2558C0.441978 31.4592 0.279259 31.7011 0.168215 31.9676C0.0571714 32.2341 0 32.52 0 32.8088C0 33.0975 0.0571714 33.3834 0.168215 33.6499C0.279259 33.9165 0.441978 34.1584 0.646985 34.3617C0.850318 34.5667 1.09223 34.7294 1.35877 34.8405C1.6253 34.9515 1.91119 35.0087 2.19993 35.0087C2.48868 35.0087 2.77456 34.9515 3.0411 34.8405C3.30764 34.7294 3.54955 34.5667 3.75288 34.3617L30.6342 7.4804V11.6143Z" fill="#222831"/>
<path d="M32.8215 21.1726C32.2414 21.1726 31.685 21.4031 31.2748 21.8133C30.8647 22.2234 30.6342 22.7798 30.6342 23.3599V27.5375L24.5537 21.4351C24.1418 21.0232 23.5832 20.7918 23.0007 20.7918C22.4182 20.7918 21.8596 21.0232 21.4478 21.4351C21.0359 21.847 20.8045 22.4056 20.8045 22.988C20.8045 23.5705 21.0359 24.1291 21.4478 24.541L27.5064 30.6215H23.3944C22.8143 30.6215 22.258 30.852 21.8478 31.2622C21.4376 31.6724 21.2072 32.2287 21.2072 32.8088C21.2072 33.3889 21.4376 33.9452 21.8478 34.3554C22.258 34.7656 22.8143 34.996 23.3944 34.996H32.8215C33.1301 34.9979 33.4357 34.9345 33.718 34.8098C34.0004 34.6852 34.2532 34.5022 34.4598 34.2728C34.6664 34.0435 34.8221 33.7731 34.9167 33.4793C35.0113 33.1855 35.0427 32.875 35.0087 32.5682V23.3599C35.0087 22.7798 34.7783 22.2234 34.3681 21.8133C33.9579 21.4031 33.4016 21.1726 32.8215 21.1726Z" fill="#222831"/>
</svg>
