<svg width="19" height="26" viewBox="0 0 19 26" fill="none" xmlns="http://www.w3.org/2000/svg">
<path d="M9.71121 8.17135C9.71121 7.86526 9.8328 7.57171 10.0492 7.35528C10.2657 7.13884 10.5592 7.01725 10.8653 7.01725H17.0205C17.2486 7.01745 17.4715 7.08525 17.6611 7.21208C17.8507 7.3389 17.9985 7.51907 18.0858 7.72983C18.173 7.94059 18.1959 8.17248 18.1514 8.39622C18.107 8.61996 17.9972 8.82551 17.836 8.98691L14.9277 11.8983C15.4078 12.0153 15.8572 12.1753 16.2619 12.3892C17.4036 12.9908 18.1761 14.0249 18.1761 15.4745C18.1761 16.4793 17.8207 17.3333 17.2082 17.9781C16.6142 18.6059 15.8325 18.9829 15.0416 19.1737C13.4874 19.5476 11.6178 19.2707 10.2344 18.3628C9.99784 18.187 9.83738 17.9274 9.78586 17.6373C9.73433 17.3471 9.79562 17.0482 9.95719 16.8017C10.1188 16.5552 10.3684 16.3797 10.6551 16.3112C10.9417 16.2427 11.2437 16.2863 11.4993 16.4331C12.321 16.9717 13.5305 17.1625 14.5015 16.9286C14.9723 16.8163 15.317 16.6193 15.5325 16.3916C15.731 16.1823 15.8679 15.8992 15.8679 15.4745C15.8679 15.0005 15.6787 14.6912 15.1847 14.4312C14.6107 14.128 13.6767 13.9418 12.4056 13.9418C12.1775 13.9416 11.9546 13.8738 11.765 13.747C11.5754 13.6202 11.4276 13.44 11.3404 13.2292C11.2531 13.0185 11.2302 12.7866 11.2747 12.5629C11.3191 12.3391 11.4289 12.1336 11.5901 11.9722L14.2368 9.32544H10.8653C10.5592 9.32544 10.2657 9.20385 10.0492 8.98742C9.8328 8.77098 9.71121 8.47743 9.71121 8.17135ZM4.19156 17.0394C3.65298 16.9625 3.00669 17.2133 2.67893 17.9196C2.61712 18.0602 2.52787 18.187 2.41641 18.2927C2.30495 18.3984 2.17353 18.4807 2.02984 18.5349C1.88614 18.5891 1.73307 18.6141 1.5796 18.6084C1.42612 18.6027 1.27533 18.5665 1.13605 18.5017C0.996777 18.437 0.871819 18.3452 0.768502 18.2315C0.665186 18.1179 0.58559 17.9848 0.534377 17.84C0.483164 17.6952 0.461366 17.5416 0.470259 17.3883C0.479153 17.235 0.518558 17.085 0.586168 16.9471C1.36787 15.2636 3.03131 14.5389 4.5224 14.7543C6.06119 14.9774 7.40302 16.2085 7.40302 18.1735C7.40302 20.3786 5.72881 21.5465 4.64858 22.299C4.17463 22.6314 3.76993 22.9099 3.46063 23.1807H6.63362C6.93971 23.1807 7.23326 23.3023 7.44969 23.5188C7.66613 23.7352 7.78772 24.0287 7.78772 24.3348C7.78772 24.6409 7.66613 24.9345 7.44969 25.1509C7.23326 25.3673 6.93971 25.4889 6.63362 25.4889H1.63255C1.32646 25.4889 1.03291 25.3673 0.816479 25.1509C0.600044 24.9345 0.478452 24.6409 0.478452 24.3348C0.478452 23.2731 0.94009 22.4714 1.50944 21.8574C2.04494 21.2849 2.74048 20.8172 3.27906 20.4417C4.51009 19.58 5.09483 19.0506 5.09483 18.1735C5.09483 17.4457 4.68397 17.1117 4.19156 17.0394ZM4.48547 0.999033C4.66955 1.09759 4.82345 1.24424 4.93076 1.42337C5.03807 1.60249 5.09478 1.80737 5.09483 2.01618V9.35622H6.18891C6.495 9.35622 6.78855 9.47781 7.00498 9.69424C7.22142 9.91068 7.34301 10.2042 7.34301 10.5103C7.34301 10.8164 7.22142 11.1099 7.00498 11.3264C6.78855 11.5428 6.495 11.6644 6.18891 11.6644H1.6464C1.34031 11.6644 1.04676 11.5428 0.830328 11.3264C0.613893 11.1099 0.492302 10.8164 0.492302 10.5103C0.492302 10.2042 0.613893 9.91068 0.830328 9.69424C1.04676 9.47781 1.34031 9.35622 1.6464 9.35622H2.78664V4.17049L2.27268 4.51364C2.018 4.67941 1.7082 4.73805 1.41055 4.67681C1.1129 4.61558 0.851406 4.43942 0.68284 4.18657C0.514274 3.93372 0.452237 3.62459 0.510195 3.32628C0.568153 3.02797 0.741429 2.76456 0.99241 2.59322L3.3006 1.05443C3.47445 0.938586 3.67649 0.872106 3.88516 0.862079C4.09383 0.852052 4.30131 0.898854 4.48547 0.997494V0.999033Z" fill="#FFFCF5"/>
</svg>
